  0
SECTION
  2
HEADER
  9
$ACADVER
  1
AC1021
  9
$ACADMAINTVER
 70
    25
  9
$DWGCODEPAGE
  3
ANSI_1252
  9
$INSBASE
 10
0.0
 20
0.0
 30
0.0
  9
$EXTMIN
 10
-398.8454
 20
-16.9694
 30
0.0
  9
$EXTMAX
 10
451.3546
 20
179.6634
 30
0.0
  9
$LIMMIN
 10
0.0
 20
0.0
  9
$LIMMAX
 10
12.0
 20
9.0
  9
$ORTHOMODE
 70
     0
  9
$REGENMODE
 70
     1
  9
$FILLMODE
 70
     1
  9
$QTEXTMODE
 70
     0
  9
$MIRRTEXT
 70
     1
  9
$LTSCALE
 40
1.0
  9
$ATTMODE
 70
     1
  9
$TEXTSIZE
 40
0.2
  9
$TRACEWID
 40
0.05
  9
$TEXTSTYLE
  7
Standard
  9
$CLAYER
  8
0
  9
$CELTYPE
  6
ByLayer
  9
$CECOLOR
 62
   256
  9
$CELTSCALE
 40
1.0
  9
$DISPSILH
 70
     0
  9
$DIMSCALE
 40
1.0
  9
$DIMASZ
 40
0.18
  9
$DIMEXO
 40
0.0625
  9
$DIMDLI
 40
0.38
  9
$DIMRND
 40
0.0
  9
$DIMDLE
 40
0.0
  9
$DIMEXE
 40
0.18
  9
$DIMTP
 40
0.0
  9
$DIMTM
 40
0.0
  9
$DIMTXT
 40
0.18
  9
$DIMCEN
 40
0.09
  9
$DIMTSZ
 40
0.0
  9
$DIMTOL
 70
     0
  9
$DIMLIM
 70
     0
  9
$DIMTIH
 70
     1
  9
$DIMTOH
 70
     1
  9
$DIMSE1
 70
     0
  9
$DIMSE2
 70
     0
  9
$DIMTAD
 70
     0
  9
$DIMZIN
 70
     0
  9
$DIMBLK
  1

  9
$DIMASO
 70
     1
  9
$DIMSHO
 70
     1
  9
$DIMPOST
  1

  9
$DIMAPOST
  1

  9
$DIMALT
 70
     0
  9
$DIMALTD
 70
     2
  9
$DIMALTF
 40
25.4
  9
$DIMLFAC
 40
1.0
  9
$DIMTOFL
 70
     0
  9
$DIMTVP
 40
0.0
  9
$DIMTIX
 70
     0
  9
$DIMSOXD
 70
     0
  9
$DIMSAH
 70
     0
  9
$DIMBLK1
  1

  9
$DIMBLK2
  1

  9
$DIMSTYLE
  2
Standard
  9
$DIMCLRD
 70
     0
  9
$DIMCLRE
 70
     0
  9
$DIMCLRT
 70
     0
  9
$DIMTFAC
 40
1.0
  9
$DIMGAP
 40
0.09
  9
$DIMJUST
 70
     0
  9
$DIMSD1
 70
     0
  9
$DIMSD2
 70
     0
  9
$DIMTOLJ
 70
     1
  9
$DIMTZIN
 70
     0
  9
$DIMALTZ
 70
     0
  9
$DIMALTTZ
 70
     0
  9
$DIMUPT
 70
     0
  9
$DIMDEC
 70
     4
  9
$DIMTDEC
 70
     4
  9
$DIMALTU
 70
     2
  9
$DIMALTTD
 70
     2
  9
$DIMTXSTY
  7
Standard
  9
$DIMAUNIT
 70
     0
  9
$DIMADEC
 70
     0
  9
$DIMALTRND
 40
0.0
  9
$DIMAZIN
 70
     0
  9
$DIMDSEP
 70
    46
  9
$DIMATFIT
 70
     3
  9
$DIMFRAC
 70
     0
  9
$DIMLDRBLK
  1

  9
$DIMLUNIT
 70
     2
  9
$DIMLWD
 70
    -2
  9
$DIMLWE
 70
    -2
  9
$DIMTMOVE
 70
     0
  9
$DIMFXL
 40
1.0
  9
$DIMFXLON
 70
     0
  9
$DIMJOGANG
 40
0.7853981633974483
  9
$DIMTFILL
 70
     0
  9
$DIMTFILLCLR
 70
     0
  9
$DIMARCSYM
 70
     0
  9
$DIMLTYPE
  6

  9
$DIMLTEX1
  6

  9
$DIMLTEX2
  6

  9
$LUNITS
 70
     2
  9
$LUPREC
 70
     4
  9
$SKETCHINC
 40
0.1
  9
$FILLETRAD
 40
0.5
  9
$AUNITS
 70
     0
  9
$AUPREC
 70
     0
  9
$MENU
  1
.
  9
$ELEVATION
 40
0.0
  9
$PELEVATION
 40
0.0
  9
$THICKNESS
 40
0.0
  9
$LIMCHECK
 70
     0
  9
$CHAMFERA
 40
0.5
  9
$CHAMFERB
 40
0.5
  9
$CHAMFERC
 40
1.0
  9
$CHAMFERD
 40
0.0
  9
$SKPOLY
 70
     0
  9
$TDCREATE
 40
2457324.899049386
  9
$TDUCREATE
 40
2457324.565716053
  9
$TDUPDATE
 40
2457324.899049398
  9
$TDUUPDATE
 40
2457324.565716065
  9
$TDINDWG
 40
0.0000000116
  9
$TDUSRTIMER
 40
0.0000000116
  9
$USRTIMER
 70
     1
  9
$ANGBASE
 50
0.0
  9
$ANGDIR
 70
     0
  9
$PDMODE
 70
     0
  9
$PDSIZE
 40
0.0
  9
$PLINEWID
 40
0.0
  9
$SPLFRAME
 70
     0
  9
$SPLINETYPE
 70
     6
  9
$SPLINESEGS
 70
     8
  9
$HANDSEED
  5
79
  9
$SURFTAB1
 70
     6
  9
$SURFTAB2
 70
     6
  9
$SURFTYPE
 70
     6
  9
$SURFU
 70
     6
  9
$SURFV
 70
     6
  9
$UCSBASE
  2

  9
$UCSNAME
  2

  9
$UCSORG
 10
0.0
 20
0.0
 30
0.0
  9
$UCSXDIR
 10
1.0
 20
0.0
 30
0.0
  9
$UCSYDIR
 10
0.0
 20
1.0
 30
0.0
  9
$UCSORTHOREF
  2

  9
$UCSORTHOVIEW
 70
     0
  9
$UCSORGTOP
 10
0.0
 20
0.0
 30
0.0
  9
$UCSORGBOTTOM
 10
0.0
 20
0.0
 30
0.0
  9
$UCSORGLEFT
 10
0.0
 20
0.0
 30
0.0
  9
$UCSORGRIGHT
 10
0.0
 20
0.0
 30
0.0
  9
$UCSORGFRONT
 10
0.0
 20
0.0
 30
0.0
  9
$UCSORGBACK
 10
0.0
 20
0.0
 30
0.0
  9
$PUCSBASE
  2

  9
$PUCSNAME
  2

  9
$PUCSORG
 10
0.0
 20
0.0
 30
0.0
  9
$PUCSXDIR
 10
1.0
 20
0.0
 30
0.0
  9
$PUCSYDIR
 10
0.0
 20
1.0
 30
0.0
  9
$PUCSORTHOREF
  2

  9
$PUCSORTHOVIEW
 70
     0
  9
$PUCSORGTOP
 10
0.0
 20
0.0
 30
0.0
  9
$PUCSORGBOTTOM
 10
0.0
 20
0.0
 30
0.0
  9
$PUCSORGLEFT
 10
0.0
 20
0.0
 30
0.0
  9
$PUCSORGRIGHT
 10
0.0
 20
0.0
 30
0.0
  9
$PUCSORGFRONT
 10
0.0
 20
0.0
 30
0.0
  9
$PUCSORGBACK
 10
0.0
 20
0.0
 30
0.0
  9
$USERI1
 70
     0
  9
$USERI2
 70
     0
  9
$USERI3
 70
     0
  9
$USERI4
 70
     0
  9
$USERI5
 70
     0
  9
$USERR1
 40
0.0
  9
$USERR2
 40
0.0
  9
$USERR3
 40
0.0
  9
$USERR4
 40
0.0
  9
$USERR5
 40
0.0
  9
$WORLDVIEW
 70
     1
  9
$SHADEDGE
 70
     3
  9
$SHADEDIF
 70
    70
  9
$TILEMODE
 70
     1
  9
$MAXACTVP
 70
    64
  9
$PINSBASE
 10
0.0
 20
0.0
 30
0.0
  9
$PLIMCHECK
 70
     0
  9
$PEXTMIN
 10
1.000000000000000E+20
 20
1.000000000000000E+20
 30
1.000000000000000E+20
  9
$PEXTMAX
 10
-1.000000000000000E+20
 20
-1.000000000000000E+20
 30
-1.000000000000000E+20
  9
$PLIMMIN
 10
0.0
 20
0.0
  9
$PLIMMAX
 10
12.0
 20
9.0
  9
$UNITMODE
 70
     0
  9
$VISRETAIN
 70
     1
  9
$PLINEGEN
 70
     0
  9
$PSLTSCALE
 70
     1
  9
$TREEDEPTH
 70
  3020
  9
$CMLSTYLE
  2
Standard
  9
$CMLJUST
 70
     0
  9
$CMLSCALE
 40
1.0
  9
$PROXYGRAPHICS
 70
     1
  9
$MEASUREMENT
 70
     0
  9
$CELWEIGHT
370
    -1
  9
$ENDCAPS
280
     0
  9
$JOINSTYLE
280
     0
  9
$LWDISPLAY
290
     0
  9
$INSUNITS
 70
     4
  9
$HYPERLINKBASE
  1

  9
$STYLESHEET
  1

  9
$XEDIT
290
     1
  9
$CEPSNTYPE
380
     0
  9
$PSTYLEMODE
290
     1
  9
$FINGERPRINTGUID
  2
{38398A40-E910-481B-A9AE-1150C391364B}
  9
$VERSIONGUID
  2
{FAEB1C32-E019-11D5-929B-00C0DF256EC4}
  9
$EXTNAMES
290
     1
  9
$PSVPSCALE
 40
0.0
  9
$OLESTARTUP
290
     0
  9
$SORTENTS
280
   127
  9
$INDEXCTL
280
     0
  9
$HIDETEXT
280
     1
  9
$XCLIPFRAME
290
     0
  9
$HALOGAP
280
     0
  9
$OBSCOLOR
 70
   257
  9
$OBSLTYPE
280
     0
  9
$INTERSECTIONDISPLAY
280
     0
  9
$INTERSECTIONCOLOR
 70
   257
  9
$DIMASSOC
280
     2
  9
$PROJECTNAME
  1

  9
$CAMERADISPLAY
290
     0
  9
$LENSLENGTH
 40
50.0
  9
$CAMERAHEIGHT
 40
0.0
  9
$STEPSPERSEC
 40
2.0
  9
$STEPSIZE
 40
6.0
  9
$3DDWFPREC
 40
2.0
  9
$PSOLWIDTH
 40
0.25
  9
$PSOLHEIGHT
 40
4.0
  9
$LOFTANG1
 40
1.570796326794897
  9
$LOFTANG2
 40
1.570796326794897
  9
$LOFTMAG1
 40
0.0
  9
$LOFTMAG2
 40
0.0
  9
$LOFTPARAM
 70
     7
  9
$LOFTNORMALS
280
     1
  9
$LATITUDE
 40
37.795
  9
$LONGITUDE
 40
-122.394
  9
$NORTHDIRECTION
 40
0.0
  9
$TIMEZONE
 70
 -8000
  9
$LIGHTGLYPHDISPLAY
280
     1
  9
$TILEMODELIGHTSYNCH
280
     1
  9
$SOLIDHIST
280
     1
  9
$SHOWHIST
280
     1
  9
$DWFFRAME
280
     2
  9
$DGNFRAME
280
     2
  9
$REALWORLDSCALE
290
     1
  9
$INTERFERECOLOR
 62
   256
  9
$CSHADOW
280
     0
  9
$SHADOWPLANELOCATION
 40
0.0
  0
ENDSEC
  0
SECTION
  2
CLASSES
  0
CLASS
  1
ACDBDICTIONARYWDFLT
  2
AcDbDictionaryWithDefault
  3
ObjectDBX Classes
 90
        0
 91
        4
280
     0
281
     0
  0
CLASS
  1
VISUALSTYLE
  2
AcDbVisualStyle
  3
ObjectDBX Classes
 90
     4095
 91
        4
280
     0
281
     0
  0
CLASS
  1
MATERIAL
  2
AcDbMaterial
  3
ObjectDBX Classes
 90
     1153
 91
        4
280
     0
281
     0
  0
ENDSEC
  0
SECTION
  2
TABLES
  0
TABLE
  2
VPORT
  5
8
330
0
100
AcDbSymbolTable
 70
     1
  0
VPORT
  5
29
330
8
100
AcDbSymbolTableRecord
100
AcDbViewportTableRecord
  2
*Active
 70
     0
 10
0.0
 20
0.0
 11
1.0
 21
1.0
 12
10.42990654205607
 22
4.5
 13
0.0
 23
0.0
 14
0.5
 24
0.5
 15
0.5
 25
0.5
 16
0.0
 26
0.0
 36
1.0
 17
0.0
 27
0.0
 37
0.0
 40
9.0
 41
1.972972972850329
 42
50.0
 43
0.0
 44
0.0
 50
0.0
 51
0.0
 71
     0
 72
   100
 73
     1
 74
     3
 75
     0
 76
     0
 77
     0
 78
     0
281
     0
 65
     1
110
0.0
120
0.0
130
0.0
111
1.0
121
0.0
131
0.0
112
0.0
122
1.0
132
0.0
 79
     0
146
0.0
 60
     3
 61
     5
292
     1
282
     1
141
0.0
142
0.0
 63
   250
  0
ENDTAB
  0
TABLE
  2
LTYPE
  5
5
330
0
100
AcDbSymbolTable
 70
     1
  0
LTYPE
  5
14
330
5
100
AcDbSymbolTableRecord
100
AcDbLinetypeTableRecord
  2
ByBlock
 70
     0
  3

 72
    65
 73
     0
 40
0.0
  0
LTYPE
  5
15
330
5
100
AcDbSymbolTableRecord
100
AcDbLinetypeTableRecord
  2
ByLayer
 70
     0
  3

 72
    65
 73
     0
 40
0.0
  0
LTYPE
  5
16
330
5
100
AcDbSymbolTableRecord
100
AcDbLinetypeTableRecord
  2
Continuous
 70
     0
  3
Solid line
 72
    65
 73
     0
 40
0.0
  0
ENDTAB
  0
TABLE
  2
LAYER
  5
2
330
0
100
AcDbSymbolTable
 70
     2
  0
LAYER
  5
10
330
2
100
AcDbSymbolTableRecord
100
AcDbLayerTableRecord
  2
0
 70
     0
 62
     7
  6
Continuous
370
    -3
390
F
347
3E
  0
LAYER
  5
40
330
2
100
AcDbSymbolTableRecord
100
AcDbLayerTableRecord
  2
Layer 1
 70
     0
 62
     7
  6
Continuous
370
    -3
390
F
347
3E
  0
ENDTAB
  0
TABLE
  2
STYLE
  5
3
330
0
100
AcDbSymbolTable
 70
     1
  0
STYLE
  5
11
330
3
100
AcDbSymbolTableRecord
100
AcDbTextStyleTableRecord
  2
Standard
 70
     0
 40
0.0
 41
1.0
 50
0.0
 71
     0
 42
0.2
  3
txt
  4

  0
ENDTAB
  0
TABLE
  2
VIEW
  5
6
330
0
100
AcDbSymbolTable
 70
     0
  0
ENDTAB
  0
TABLE
  2
UCS
  5
7
330
0
100
AcDbSymbolTable
 70
     0
  0
ENDTAB
  0
TABLE
  2
APPID
  5
9
330
0
100
AcDbSymbolTable
 70
     2
  0
APPID
  5
12
330
9
100
AcDbSymbolTableRecord
100
AcDbRegAppTableRecord
  2
ACAD
 70
     0
  0
APPID
  5
3F
330
9
100
AcDbSymbolTableRecord
100
AcDbRegAppTableRecord
  2
ODA
 70
     0
  0
ENDTAB
  0
TABLE
  2
DIMSTYLE
  5
A
330
0
100
AcDbSymbolTable
 70
     1
100
AcDbDimStyleTable
  0
DIMSTYLE
105
27
330
A
100
AcDbSymbolTableRecord
100
AcDbDimStyleTableRecord
  2
Standard
 70
     0
178
     0
340
11
  0
ENDTAB
  0
TABLE
  2
BLOCK_RECORD
  5
1
330
0
100
AcDbSymbolTable
 70
     1
  0
BLOCK_RECORD
  5
1F
330
1
100
AcDbSymbolTableRecord
100
AcDbBlockTableRecord
  2
*Model_Space
340
22
 70
     0
280
     1
281
     0
  0
BLOCK_RECORD
  5
1B
330
1
100
AcDbSymbolTableRecord
100
AcDbBlockTableRecord
  2
*Paper_Space
340
1E
 70
     0
280
     1
281
     0
  0
BLOCK_RECORD
  5
23
330
1
100
AcDbSymbolTableRecord
100
AcDbBlockTableRecord
  2
*Paper_Space0
340
26
 70
     0
280
     1
281
     0
  0
ENDTAB
  0
ENDSEC
  0
SECTION
  2
BLOCKS
  0
BLOCK
  5
20
330
1F
100
AcDbEntity
  8
0
100
AcDbBlockBegin
  2
*Model_Space
 70
     0
 10
0.0
 20
0.0
 30
0.0
  3
*Model_Space
  1

  0
ENDBLK
  5
21
330
1F
100
AcDbEntity
  8
0
100
AcDbBlockEnd
  0
BLOCK
  5
1C
330
1B
100
AcDbEntity
 67
     1
  8
0
100
AcDbBlockBegin
  2
*Paper_Space
 70
     0
 10
0.0
 20
0.0
 30
0.0
  3
*Paper_Space
  1

  0
ENDBLK
  5
1D
330
1B
100
AcDbEntity
 67
     1
  8
0
100
AcDbBlockEnd
  0
BLOCK
  5
24
330
23
100
AcDbEntity
  8
0
100
AcDbBlockBegin
  2
*Paper_Space0
 70
     0
 10
0.0
 20
0.0
 30
0.0
  3
*Paper_Space0
  1

  0
ENDBLK
  5
25
330
23
100
AcDbEntity
  8
0
100
AcDbBlockEnd
  0
ENDSEC
  0
SECTION
  2
ENTITIES
  0
SPLINE
  5
41
330
1F
100
AcDbEntity
  8
Layer 1
 62
   250
370
    20
100
AcDbSpline
210
0.0
220
0.0
230
1.0
 70
    11
 71
     3
 72
    52
 73
    48
 74
     0
 42
0.0000000001
 43
0.0000000001
 40
0.0
 40
0.0
 40
0.0
 40
0.0
 40
0.0769230769230769
 40
0.0769230769230769
 40
0.0769230769230769
 40
0.0769230769230769
 40
0.1538461538461539
 40
0.1538461538461539
 40
0.1538461538461539
 40
0.1538461538461539
 40
0.2307692307692308
 40
0.2307692307692308
 40
0.2307692307692308
 40
0.2307692307692308
 40
0.3076923076923077
 40
0.3076923076923077
 40
0.3076923076923077
 40
0.3076923076923077
 40
0.3846153846153846
 40
0.3846153846153846
 40
0.3846153846153846
 40
0.3846153846153846
 40
0.4615384615384616
 40
0.4615384615384616
 40
0.4615384615384616
 40
0.4615384615384616
 40
0.5384615384615384
 40
0.5384615384615384
 40
0.5384615384615384
 40
0.5384615384615384
 40
0.6153846153846154
 40
0.6153846153846154
 40
0.6153846153846154
 40
0.6153846153846154
 40
0.6923076923076923
 40
0.6923076923076923
 40
0.6923076923076923
 40
0.6923076923076923
 40
0.7692307692307693
 40
0.7692307692307693
 40
0.7692307692307693
 40
0.7692307692307693
 40
0.8461538461538461
 40
0.8461538461538461
 40
0.8461538461538461
 40
0.8461538461538461
 40
1.0
 40
1.0
 40
1.0
 40
1.0
 10
-141.3881
 20
178.2879
 30
0.0
 10
-141.3881
 20
178.2879
 30
0.0
 10
-141.3881
 20
138.2926
 30
0.0
 10
-141.3881
 20
138.2926
 30
0.0
 10
-141.3881
 20
138.2926
 30
0.0
 10
-141.3881
 20
138.2926
 30
0.0
 10
-155.7704
 20
138.2926
 30
0.0
 10
-155.7704
 20
138.2926
 30
0.0
 10
-155.7704
 20
138.2926
 30
0.0
 10
-155.7704
 20
138.2926
 30
0.0
 10
-165.7488
 20
171.0943
 30
0.0
 10
-165.7488
 20
171.0943
 30
0.0
 10
-165.7488
 20
171.0943
 30
0.0
 10
-165.7488
 20
171.0943
 30
0.0
 10
-165.9777
 20
171.0943
 30
0.0
 10
-165.9777
 20
171.0943
 30
0.0
 10
-165.9777
 20
171.0943
 30
0.0
 10
-165.9777
 20
171.0943
 30
0.0
 10
-165.4218
 20
138.2926
 30
0.0
 10
-165.4218
 20
138.2926
 30
0.0
 10
-165.4218
 20
138.2926
 30
0.0
 10
-165.4218
 20
138.2926
 30
0.0
 10
-175.3532
 20
138.2926
 30
0.0
 10
-175.3532
 20
138.2926
 30
0.0
 10
-175.3532
 20
138.2926
 30
0.0
 10
-175.3532
 20
138.2926
 30
0.0
 10
-175.3532
 20
178.2879
 30
0.0
 10
-175.3532
 20
178.2879
 30
0.0
 10
-175.3532
 20
178.2879
 30
0.0
 10
-175.3532
 20
178.2879
 30
0.0
 10
-160.3493
 20
178.2879
 30
0.0
 10
-160.3493
 20
178.2879
 30
0.0
 10
-160.3493
 20
178.2879
 30
0.0
 10
-160.3493
 20
178.2879
 30
0.0
 10
-151.0515
 20
146.5557
 30
0.0
 10
-151.0515
 20
146.5557
 30
0.0
 10
-151.0515
 20
146.5557
 30
0.0
 10
-151.0515
 20
146.5557
 30
0.0
 10
-150.8336
 20
146.5557
 30
0.0
 10
-150.8336
 20
146.5557
 30
0.0
 10
-150.8336
 20
146.5557
 30
0.0
 10
-150.8336
 20
146.5557
 30
0.0
 10
-151.4014
 20
178.2879
 30
0.0
 10
-151.4014
 20
178.2879
 30
0.0
 10
-151.4014
 20
178.2879
 30
0.0
 10
-151.4014
 20
178.2879
 30
0.0
 10
-141.3881
 20
178.2879
 30
0.0
 10
-141.3881
 20
178.2879
 30
0.0
  0
SPLINE
  5
42
330
1F
100
AcDbEntity
  8
Layer 1
 62
   250
370
    20
100
AcDbSpline
210
0.0
220
0.0
230
1.0
 70
    11
 71
     3
 72
    36
 73
    32
 74
     0
 42
0.0000000001
 43
0.0000000001
 40
0.0
 40
0.0
 40
0.0
 40
0.0
 40
0.1111111111111111
 40
0.1111111111111111
 40
0.1111111111111111
 40
0.1111111111111111
 40
0.2222222222222222
 40
0.2222222222222222
 40
0.2222222222222222
 40
0.2222222222222222
 40
0.3333333333333333
 40
0.3333333333333333
 40
0.3333333333333333
 40
0.3333333333333333
 40
0.4444444444444444
 40
0.4444444444444444
 40
0.4444444444444444
 40
0.4444444444444444
 40
0.5555555555555556
 40
0.5555555555555556
 40
0.5555555555555556
 40
0.5555555555555556
 40
0.6666666666666666
 40
0.6666666666666666
 40
0.6666666666666666
 40
0.6666666666666666
 40
0.7777777777777778
 40
0.7777777777777778
 40
0.7777777777777778
 40
0.7777777777777778
 40
1.0
 40
1.0
 40
1.0
 40
1.0
 10
-323.6613
 20
178.2876
 30
0.0
 10
-323.6613
 20
178.2876
 30
0.0
 10
-316.2116
 20
137.8614
 30
0.0
 10
-316.2116
 20
137.8614
 30
0.0
 10
-316.2116
 20
137.8614
 30
0.0
 10
-316.2116
 20
137.8614
 30
0.0
 10
-327.0766
 20
137.8614
 30
0.0
 10
-327.0766
 20
137.8614
 30
0.0
 10
-327.0766
 20
137.8614
 30
0.0
 10
-327.0766
 20
137.8614
 30
0.0
 10
-332.465
 20
174.5533
 30
0.0
 10
-332.465
 20
174.5533
 30
0.0
 10
-332.465
 20
174.5533
 30
0.0
 10
-332.465
 20
174.5533
 30
0.0
 10
-332.6979
 20
174.5411
 30
0.0
 10
-332.6979
 20
174.5411
 30
0.0
 10
-332.6979
 20
174.5411
 30
0.0
 10
-332.6979
 20
174.5411
 30
0.0
 10
-338.2175
 20
137.8614
 30
0.0
 10
-338.2175
 20
137.8614
 30
0.0
 10
-338.2175
 20
137.8614
 30
0.0
 10
-338.2175
 20
137.8614
 30
0.0
 10
-349.1533
 20
137.8614
 30
0.0
 10
-349.1533
 20
137.8614
 30
0.0
 10
-349.1533
 20
137.8614
 30
0.0
 10
-349.1533
 20
137.8614
 30
0.0
 10
-341.6648
 20
178.2876
 30
0.0
 10
-341.6648
 20
178.2876
 30
0.0
 10
-341.6648
 20
178.2876
 30
0.0
 10
-341.6648
 20
178.2876
 30
0.0
 10
-323.6613
 20
178.2876
 30
0.0
 10
-323.6613
 20
178.2876
 30
0.0
  0
SPLINE
  5
43
330
1F
100
AcDbEntity
  8
Layer 1
 62
   250
370
    20
100
AcDbSpline
210
0.0
220
0.0
230
1.0
 70
    11
 71
     3
 72
    68
 73
    64
 74
     0
 42
0.0000000001
 43
0.0000000001
 40
0.0
 40
0.0
 40
0.0
 40
0.0
 40
0.0588235294117647
 40
0.0588235294117647
 40
0.0588235294117647
 40
0.0588235294117647
 40
0.1176470588235294
 40
0.1176470588235294
 40
0.1176470588235294
 40
0.1176470588235294
 40
0.1764705882352941
 40
0.1764705882352941
 40
0.1764705882352941
 40
0.1764705882352941
 40
0.2352941176470588
 40
0.2352941176470588
 40
0.2352941176470588
 40
0.2352941176470588
 40
0.2941176470588235
 40
0.2941176470588235
 40
0.2941176470588235
 40
0.2941176470588235
 40
0.3529411764705883
 40
0.3529411764705883
 40
0.3529411764705883
 40
0.3529411764705883
 40
0.4117647058823529
 40
0.4117647058823529
 40
0.4117647058823529
 40
0.4117647058823529
 40
0.4705882352941176
 40
0.4705882352941176
 40
0.4705882352941176
 40
0.4705882352941176
 40
0.5294117647058824
 40
0.5294117647058824
 40
0.5294117647058824
 40
0.5294117647058824
 40
0.5882352941176471
 40
0.5882352941176471
 40
0.5882352941176471
 40
0.5882352941176471
 40
0.6470588235294118
 40
0.6470588235294118
 40
0.6470588235294118
 40
0.6470588235294118
 40
0.7058823529411765
 40
0.7058823529411765
 40
0.7058823529411765
 40
0.7058823529411765
 40
0.7647058823529411
 40
0.7647058823529411
 40
0.7647058823529411
 40
0.7647058823529411
 40
0.8235294117647058
 40
0.8235294117647058
 40
0.8235294117647058
 40
0.8235294117647058
 40
0.8823529411764706
 40
0.8823529411764706
 40
0.8823529411764706
 40
0.8823529411764706
 40
1.0
 40
1.0
 40
1.0
 40
1.0
 10
-264.0968
 20
178.2876
 30
0.0
 10
-264.0968
 20
178.2876
 30
0.0
 10
-263.1941
 20
137.8614
 30
0.0
 10
-263.1941
 20
137.8614
 30
0.0
 10
-263.1941
 20
137.8614
 30
0.0
 10
-263.1941
 20
137.8614
 30
0.0
 10
-273.3326
 20
137.8614
 30
0.0
 10
-273.3326
 20
137.8614
 30
0.0
 10
-273.3326
 20
137.8614
 30
0.0
 10
-273.3326
 20
137.8614
 30
0.0
 10
-273.5734
 20
174.2144
 30
0.0
 10
-273.5734
 20
174.2144
 30
0.0
 10
-273.5734
 20
174.2144
 30
0.0
 10
-273.5734
 20
174.2144
 30
0.0
 10
-273.8072
 20
174.2073
 30
0.0
 10
-273.8072
 20
174.2073
 30
0.0
 10
-273.8072
 20
174.2073
 30
0.0
 10
-273.8072
 20
174.2073
 30
0.0
 10
-280.5641
 20
137.8614
 30
0.0
 10
-280.5641
 20
137.8614
 30
0.0
 10
-280.5641
 20
137.8614
 30
0.0
 10
-280.5641
 20
137.8614
 30
0.0
 10
-290.8145
 20
137.8614
 30
0.0
 10
-290.8145
 20
137.8614
 30
0.0
 10
-290.8145
 20
137.8614
 30
0.0
 10
-290.8145
 20
137.8614
 30
0.0
 10
-297.5604
 20
174.2144
 30
0.0
 10
-297.5604
 20
174.2144
 30
0.0
 10
-297.5604
 20
174.2144
 30
0.0
 10
-297.5604
 20
174.2144
 30
0.0
 10
-297.7862
 20
174.2144
 30
0.0
 10
-297.7862
 20
174.2144
 30
0.0
 10
-297.7862
 20
174.2144
 30
0.0
 10
-297.7862
 20
174.2144
 30
0.0
 10
-298.0429
 20
137.8614
 30
0.0
 10
-298.0429
 20
137.8614
 30
0.0
 10
-298.0429
 20
137.8614
 30
0.0
 10
-298.0429
 20
137.8614
 30
0.0
 10
-308.1395
 20
137.8614
 30
0.0
 10
-308.1395
 20
137.8614
 30
0.0
 10
-308.1395
 20
137.8614
 30
0.0
 10
-308.1395
 20
137.8614
 30
0.0
 10
-307.2526
 20
178.2876
 30
0.0
 10
-307.2526
 20
178.2876
 30
0.0
 10
-307.2526
 20
178.2876
 30
0.0
 10
-307.2526
 20
178.2876
 30
0.0
 10
-290.7763
 20
178.2876
 30
0.0
 10
-290.7763
 20
178.2876
 30
0.0
 10
-290.7763
 20
178.2876
 30
0.0
 10
-290.7763
 20
178.2876
 30
0.0
 10
-285.8007
 20
147.3689
 30
0.0
 10
-285.8007
 20
147.3689
 30
0.0
 10
-285.8007
 20
147.3689
 30
0.0
 10
-285.8007
 20
147.3689
 30
0.0
 10
-285.5748
 20
147.3689
 30
0.0
 10
-285.5748
 20
147.3689
 30
0.0
 10
-285.5748
 20
147.3689
 30
0.0
 10
-285.5748
 20
147.3689
 30
0.0
 10
-280.5831
 20
178.2876
 30
0.0
 10
-280.5831
 20
178.2876
 30
0.0
 10
-280.5831
 20
178.2876
 30
0.0
 10
-280.5831
 20
178.2876
 30
0.0
 10
-264.0968
 20
178.2876
 30
0.0
 10
-264.0968
 20
178.2876
 30
0.0
  0
SPLINE
  5
44
330
1F
100
AcDbEntity
  8
Layer 1
 62
   250
370
    20
100
AcDbSpline
210
0.0
220
0.0
230
1.0
 70
    11
 71
     3
 72
    84
 73
    80
 74
     0
 42
0.0000000001
 43
0.0000000001
 40
0.0
 40
0.0
 40
0.0
 40
0.0
 40
0.0476190476190476
 40
0.0476190476190476
 40
0.0476190476190476
 40
0.0476190476190476
 40
0.0952380952380952
 40
0.0952380952380952
 40
0.0952380952380952
 40
0.0952380952380952
 40
0.1428571428571428
 40
0.1428571428571428
 40
0.1428571428571428
 40
0.1428571428571428
 40
0.1904761904761905
 40
0.1904761904761905
 40
0.1904761904761905
 40
0.1904761904761905
 40
0.2380952380952381
 40
0.2380952380952381
 40
0.2380952380952381
 40
0.2380952380952381
 40
0.2857142857142857
 40
0.2857142857142857
 40
0.2857142857142857
 40
0.2857142857142857
 40
0.3333333333333333
 40
0.3333333333333333
 40
0.3333333333333333
 40
0.3333333333333333
 40
0.3809523809523809
 40
0.3809523809523809
 40
0.3809523809523809
 40
0.3809523809523809
 40
0.4285714285714285
 40
0.4285714285714285
 40
0.4285714285714285
 40
0.4285714285714285
 40
0.4761904761904762
 40
0.4761904761904762
 40
0.4761904761904762
 40
0.4761904761904762
 40
0.5238095238095238
 40
0.5238095238095238
 40
0.5238095238095238
 40
0.5238095238095238
 40
0.5714285714285714
 40
0.5714285714285714
 40
0.5714285714285714
 40
0.5714285714285714
 40
0.6190476190476191
 40
0.6190476190476191
 40
0.6190476190476191
 40
0.6190476190476191
 40
0.6666666666666666
 40
0.6666666666666666
 40
0.6666666666666666
 40
0.6666666666666666
 40
0.7142857142857143
 40
0.7142857142857143
 40
0.7142857142857143
 40
0.7142857142857143
 40
0.7619047619047619
 40
0.7619047619047619
 40
0.7619047619047619
 40
0.7619047619047619
 40
0.8095238095238095
 40
0.8095238095238095
 40
0.8095238095238095
 40
0.8095238095238095
 40
0.8571428571428571
 40
0.8571428571428571
 40
0.8571428571428571
 40
0.8571428571428571
 40
0.9047619047619048
 40
0.9047619047619048
 40
0.9047619047619048
 40
0.9047619047619048
 40
1.0
 40
1.0
 40
1.0
 40
1.0
 10
-356.6724
 20
166.5545
 30
0.0
 10
-356.6724
 20
166.5545
 30
0.0
 10
-356.6724
 20
169.3912
 30
0.0
 10
-356.6724
 20
169.3912
 30
0.0
 10
-356.6724
 20
169.3912
 30
0.0
 10
-356.6724
 20
178.1901
 30
0.0
 10
-364.5817
 20
179.5634
 30
0.0
 10
-370.316
 20
179.5634
 30
0.0
 10
-370.316
 20
179.5634
 30
0.0
 10
-377.5048
 20
179.5634
 30
0.0
 10
-383.3709
 20
177.1945
 30
0.0
 10
-384.4484
 20
170.5886
 30
0.0
 10
-384.4484
 20
170.5886
 30
0.0
 10
-384.7323
 20
168.8036
 30
0.0
 10
-384.7754
 20
167.2013
 30
0.0
 10
-384.3396
 20
165.1582
 30
0.0
 10
-384.3396
 20
165.1582
 30
0.0
 10
-382.5963
 20
156.8959
 30
0.0
 10
-368.2341
 20
154.5072
 30
0.0
 10
-366.161
 20
149.2785
 30
0.0
 10
-366.161
 20
149.2785
 30
0.0
 10
-365.7683
 20
148.2829
 30
0.0
 10
-365.8921
 20
147.0306
 30
0.0
 10
-366.083
 20
146.2761
 30
0.0
 10
-366.083
 20
146.2761
 30
0.0
 10
-366.4058
 20
144.9455
 30
0.0
 10
-367.3085
 20
143.5722
 30
0.0
 10
-370.0163
 20
143.5722
 30
0.0
 10
-370.0163
 20
143.5722
 30
0.0
 10
-372.5292
 20
143.5722
 30
0.0
 10
-374.0733
 20
145.0155
 30
0.0
 10
-374.0733
 20
147.2204
 30
0.0
 10
-374.0733
 20
147.2204
 30
0.0
 10
-374.0733
 20
147.2204
 30
0.0
 10
-374.0733
 20
151.1536
 30
0.0
 10
-374.0733
 20
151.1536
 30
0.0
 10
-374.0733
 20
151.1536
 30
0.0
 10
-374.0733
 20
151.1536
 30
0.0
 10
-384.9233
 20
151.1536
 30
0.0
 10
-384.9233
 20
151.1536
 30
0.0
 10
-384.9233
 20
151.1536
 30
0.0
 10
-384.9233
 20
151.1536
 30
0.0
 10
-384.9233
 20
148.018
 30
0.0
 10
-384.9233
 20
148.018
 30
0.0
 10
-384.9233
 20
148.018
 30
0.0
 10
-384.9233
 20
139.0284
 30
0.0
 10
-377.8275
 20
136.2976
 30
0.0
 10
-370.2492
 20
136.2976
 30
0.0
 10
-370.2492
 20
136.2976
 30
0.0
 10
-362.9086
 20
136.2976
 30
0.0
 10
-356.9223
 20
138.7833
 30
0.0
 10
-355.9417
 20
145.5252
 30
0.0
 10
-355.9417
 20
145.5252
 30
0.0
 10
-355.4518
 20
149.0176
 30
0.0
 10
-355.8168
 20
151.3177
 30
0.0
 10
-355.9808
 20
152.1651
 30
0.0
 10
-355.9808
 20
152.1651
 30
0.0
 10
-357.704
 20
160.6342
 30
0.0
 10
-373.0307
 20
163.1392
 30
0.0
 10
-374.1781
 20
167.9049
 30
0.0
 10
-374.1781
 20
167.9049
 30
0.0
 10
-374.3651
 20
168.7095
 30
0.0
 10
-374.3221
 20
169.5233
 30
0.0
 10
-374.2291
 20
170.001
 30
0.0
 10
-374.2291
 20
170.001
 30
0.0
 10
-373.9452
 20
171.3014
 30
0.0
 10
-373.0468
 20
172.7286
 30
0.0
 10
-370.53
 20
172.7286
 30
0.0
 10
-370.53
 20
172.7286
 30
0.0
 10
-368.1531
 20
172.7286
 30
0.0
 10
-366.7636
 20
171.2584
 30
0.0
 10
-366.7636
 20
169.0563
 30
0.0
 10
-366.7636
 20
169.0563
 30
0.0
 10
-366.7636
 20
169.0563
 30
0.0
 10
-366.7636
 20
166.5545
 30
0.0
 10
-366.7636
 20
166.5545
 30
0.0
 10
-366.7636
 20
166.5545
 30
0.0
 10
-366.7636
 20
166.5545
 30
0.0
 10
-356.6724
 20
166.5545
 30
0.0
 10
-356.6724
 20
166.5545
 30
0.0
  0
SPLINE
  5
45
330
1F
100
AcDbEntity
  8
Layer 1
 62
   250
370
    20
100
AcDbSpline
210
0.0
220
0.0
230
1.0
 70
    11
 71
     3
 72
    84
 73
    80
 74
     0
 42
0.0000000001
 43
0.0000000001
 40
0.0
 40
0.0
 40
0.0
 40
0.0
 40
0.0476190476190476
 40
0.0476190476190476
 40
0.0476190476190476
 40
0.0476190476190476
 40
0.0952380952380952
 40
0.0952380952380952
 40
0.0952380952380952
 40
0.0952380952380952
 40
0.1428571428571428
 40
0.1428571428571428
 40
0.1428571428571428
 40
0.1428571428571428
 40
0.1904761904761905
 40
0.1904761904761905
 40
0.1904761904761905
 40
0.1904761904761905
 40
0.2380952380952381
 40
0.2380952380952381
 40
0.2380952380952381
 40
0.2380952380952381
 40
0.2857142857142857
 40
0.2857142857142857
 40
0.2857142857142857
 40
0.2857142857142857
 40
0.3333333333333333
 40
0.3333333333333333
 40
0.3333333333333333
 40
0.3333333333333333
 40
0.3809523809523809
 40
0.3809523809523809
 40
0.3809523809523809
 40
0.3809523809523809
 40
0.4285714285714285
 40
0.4285714285714285
 40
0.4285714285714285
 40
0.4285714285714285
 40
0.4761904761904762
 40
0.4761904761904762
 40
0.4761904761904762
 40
0.4761904761904762
 40
0.5238095238095238
 40
0.5238095238095238
 40
0.5238095238095238
 40
0.5238095238095238
 40
0.5714285714285714
 40
0.5714285714285714
 40
0.5714285714285714
 40
0.5714285714285714
 40
0.6190476190476191
 40
0.6190476190476191
 40
0.6190476190476191
 40
0.6190476190476191
 40
0.6666666666666666
 40
0.6666666666666666
 40
0.6666666666666666
 40
0.6666666666666666
 40
0.7142857142857143
 40
0.7142857142857143
 40
0.7142857142857143
 40
0.7142857142857143
 40
0.7619047619047619
 40
0.7619047619047619
 40
0.7619047619047619
 40
0.7619047619047619
 40
0.8095238095238095
 40
0.8095238095238095
 40
0.8095238095238095
 40
0.8095238095238095
 40
0.8571428571428571
 40
0.8571428571428571
 40
0.8571428571428571
 40
0.8571428571428571
 40
0.9047619047619048
 40
0.9047619047619048
 40
0.9047619047619048
 40
0.9047619047619048
 40
1.0
 40
1.0
 40
1.0
 40
1.0
 10
-225.3822
 20
166.4698
 30
0.0
 10
-225.3822
 20
166.4698
 30
0.0
 10
-225.3822
 20
169.2702
 30
0.0
 10
-225.3822
 20
169.2702
 30
0.0
 10
-225.3822
 20
169.2702
 30
0.0
 10
-225.3822
 20
177.9805
 30
0.0
 10
-233.2016
 20
179.3498
 30
0.0
 10
-238.87
 20
179.3498
 30
0.0
 10
-238.87
 20
179.3498
 30
0.0
 10
-245.9765
 20
179.3498
 30
0.0
 10
-251.7888
 20
177.0197
 30
0.0
 10
-252.8544
 20
170.4529
 30
0.0
 10
-252.8544
 20
170.4529
 30
0.0
 10
-253.1462
 20
168.6945
 30
0.0
 10
-253.1972
 20
167.0993
 30
0.0
 10
-252.7654
 20
165.0803
 30
0.0
 10
-252.7654
 20
165.0803
 30
0.0
 10
-251.0343
 20
156.8962
 30
0.0
 10
-236.796
 20
154.5301
 30
0.0
 10
-234.7497
 20
149.3607
 30
0.0
 10
-234.7497
 20
149.3607
 30
0.0
 10
-234.3689
 20
148.3841
 30
0.0
 10
-234.4701
 20
147.1317
 30
0.0
 10
-234.665
 20
146.384
 30
0.0
 10
-234.665
 20
146.384
 30
0.0
 10
-234.9917
 20
145.0467
 30
0.0
 10
-235.8904
 20
143.7161
 30
0.0
 10
-238.5742
 20
143.7161
 30
0.0
 10
-238.5742
 20
143.7161
 30
0.0
 10
-241.076
 20
143.7161
 30
0.0
 10
-242.5842
 20
145.1356
 30
0.0
 10
-242.5842
 20
147.3216
 30
0.0
 10
-242.5842
 20
147.3216
 30
0.0
 10
-242.5842
 20
147.3216
 30
0.0
 10
-242.5842
 20
151.2007
 30
0.0
 10
-242.5842
 20
151.2007
 30
0.0
 10
-242.5842
 20
151.2007
 30
0.0
 10
-242.5842
 20
151.2007
 30
0.0
 10
-253.3293
 20
151.2007
 30
0.0
 10
-253.3293
 20
151.2007
 30
0.0
 10
-253.3293
 20
151.2007
 30
0.0
 10
-253.3293
 20
151.2007
 30
0.0
 10
-253.3372
 20
148.1353
 30
0.0
 10
-253.3372
 20
148.1353
 30
0.0
 10
-253.3372
 20
148.1353
 30
0.0
 10
-253.3372
 20
139.1913
 30
0.0
 10
-246.3035
 20
136.4997
 30
0.0
 10
-238.7838
 20
136.4997
 30
0.0
 10
-238.7838
 20
136.4997
 30
0.0
 10
-231.5523
 20
136.4997
 30
0.0
 10
-225.5921
 20
138.9695
 30
0.0
 10
-224.6356
 20
145.6454
 30
0.0
 10
-224.6356
 20
145.6454
 30
0.0
 10
-224.1607
 20
149.1037
 30
0.0
 10
-224.5146
 20
151.3676
 30
0.0
 10
-224.6826
 20
152.2193
 30
0.0
 10
-224.6826
 20
152.2193
 30
0.0
 10
-226.3787
 20
160.6025
 30
0.0
 10
-241.5576
 20
163.0771
 30
0.0
 10
-242.6782
 20
167.7881
 30
0.0
 10
-242.6782
 20
167.7881
 30
0.0
 10
-242.8882
 20
168.5936
 30
0.0
 10
-242.8222
 20
169.4062
 30
0.0
 10
-242.74
 20
169.8771
 30
0.0
 10
-242.74
 20
169.8771
 30
0.0
 10
-242.4603
 20
171.1575
 30
0.0
 10
-241.5817
 20
172.5577
 30
0.0
 10
-239.0759
 20
172.5577
 30
0.0
 10
-239.0759
 20
172.5577
 30
0.0
 10
-236.7489
 20
172.5577
 30
0.0
 10
-235.3535
 20
171.1215
 30
0.0
 10
-235.3535
 20
168.9436
 30
0.0
 10
-235.3535
 20
168.9436
 30
0.0
 10
-235.3535
 20
168.9436
 30
0.0
 10
-235.3535
 20
166.4698
 30
0.0
 10
-235.3535
 20
166.4698
 30
0.0
 10
-235.3535
 20
166.4698
 30
0.0
 10
-235.3535
 20
166.4698
 30
0.0
 10
-225.3822
 20
166.4698
 30
0.0
 10
-225.3822
 20
166.4698
 30
0.0
  0
SPLINE
  5
46
330
1F
100
AcDbEntity
  8
Layer 1
 62
   250
370
    20
100
AcDbSpline
210
0.0
220
0.0
230
1.0
 70
    11
 71
     3
 72
    60
 73
    56
 74
     0
 42
0.0000000001
 43
0.0000000001
 40
0.0
 40
0.0
 40
0.0
 40
0.0
 40
0.0666666666666667
 40
0.0666666666666667
 40
0.0666666666666667
 40
0.0666666666666667
 40
0.1333333333333333
 40
0.1333333333333333
 40
0.1333333333333333
 40
0.1333333333333333
 40
0.2
 40
0.2
 40
0.2
 40
0.2
 40
0.2666666666666667
 40
0.2666666666666667
 40
0.2666666666666667
 40
0.2666666666666667
 40
0.3333333333333333
 40
0.3333333333333333
 40
0.3333333333333333
 40
0.3333333333333333
 40
0.4
 40
0.4
 40
0.4
 40
0.4
 40
0.4666666666666667
 40
0.4666666666666667
 40
0.4666666666666667
 40
0.4666666666666667
 40
0.5333333333333333
 40
0.5333333333333333
 40
0.5333333333333333
 40
0.5333333333333333
 40
0.6
 40
0.6
 40
0.6
 40
0.6
 40
0.6666666666666666
 40
0.6666666666666666
 40
0.6666666666666666
 40
0.6666666666666666
 40
0.7333333333333333
 40
0.7333333333333333
 40
0.7333333333333333
 40
0.7333333333333333
 40
0.8
 40
0.8
 40
0.8
 40
0.8
 40
0.8666666666666667
 40
0.8666666666666667
 40
0.8666666666666667
 40
0.8666666666666667
 40
1.0
 40
1.0
 40
1.0
 40
1.0
 10
-186.6117
 20
178.3032
 30
0.0
 10
-186.6117
 20
178.3032
 30
0.0
 10
-186.6117
 20
149.3216
 30
0.0
 10
-186.6117
 20
149.3216
 30
0.0
 10
-186.6117
 20
149.3216
 30
0.0
 10
-186.6038
 20
148.5549
 30
0.0
 10
-186.6698
 20
147.0535
 30
0.0
 10
-186.7208
 20
146.6486
 30
0.0
 10
-186.7208
 20
146.6486
 30
0.0
 10
-187.4204
 20
139.1063
 30
0.0
 10
-193.3995
 20
136.6745
 30
0.0
 10
-200.8223
 20
136.6745
 30
0.0
 10
-200.8223
 20
136.6745
 30
0.0
 10
-208.2487
 20
136.6745
 30
0.0
 10
-214.214
 20
139.1063
 30
0.0
 10
-214.9108
 20
146.6486
 30
0.0
 10
-214.9108
 20
146.6486
 30
0.0
 10
-214.9567
 20
147.0535
 30
0.0
 10
-215.0266
 20
148.5549
 30
0.0
 10
-215.0037
 20
149.3216
 30
0.0
 10
-215.0037
 20
149.3216
 30
0.0
 10
-215.0037
 20
149.3216
 30
0.0
 10
-215.0037
 20
178.3032
 30
0.0
 10
-215.0037
 20
178.3032
 30
0.0
 10
-215.0037
 20
178.3032
 30
0.0
 10
-215.0037
 20
178.3032
 30
0.0
 10
-204.8023
 20
178.3032
 30
0.0
 10
-204.8023
 20
178.3032
 30
0.0
 10
-204.8023
 20
178.3032
 30
0.0
 10
-204.8023
 20
178.3032
 30
0.0
 10
-204.8023
 20
148.3841
 30
0.0
 10
-204.8023
 20
148.3841
 30
0.0
 10
-204.8023
 20
148.3841
 30
0.0
 10
-204.8054
 20
147.8783
 30
0.0
 10
-204.7824
 20
147.2714
 30
0.0
 10
-204.6935
 20
146.8475
 30
0.0
 10
-204.6935
 20
146.8475
 30
0.0
 10
-204.5025
 20
145.855
 30
0.0
 10
-203.6228
 20
143.9261
 30
0.0
 10
-200.8223
 20
143.9261
 30
0.0
 10
-200.8223
 20
143.9261
 30
0.0
 10
-198.0176
 20
143.9261
 30
0.0
 10
-197.15
 20
145.855
 30
0.0
 10
-196.944
 20
146.8475
 30
0.0
 10
-196.944
 20
146.8475
 30
0.0
 10
-196.8622
 20
147.2714
 30
0.0
 10
-196.846
 20
147.8783
 30
0.0
 10
-196.846
 20
148.3841
 30
0.0
 10
-196.846
 20
148.3841
 30
0.0
 10
-196.846
 20
148.3841
 30
0.0
 10
-196.846
 20
178.3032
 30
0.0
 10
-196.846
 20
178.3032
 30
0.0
 10
-196.846
 20
178.3032
 30
0.0
 10
-196.846
 20
178.3032
 30
0.0
 10
-186.6117
 20
178.3032
 30
0.0
 10
-186.6117
 20
178.3032
 30
0.0
  0
SPLINE
  5
47
330
1F
100
AcDbEntity
  8
Layer 1
 62
   250
370
    20
100
AcDbSpline
210
0.0
220
0.0
230
1.0
 70
    11
 71
     3
 72
   108
 73
   104
 74
     0
 42
0.0000000001
 43
0.0000000001
 40
0.0
 40
0.0
 40
0.0
 40
0.0
 40
0.037037037037037
 40
0.037037037037037
 40
0.037037037037037
 40
0.037037037037037
 40
0.0740740740740741
 40
0.0740740740740741
 40
0.0740740740740741
 40
0.0740740740740741
 40
0.1111111111111111
 40
0.1111111111111111
 40
0.1111111111111111
 40
0.1111111111111111
 40
0.1481481481481481
 40
0.1481481481481481
 40
0.1481481481481481
 40
0.1481481481481481
 40
0.1851851851851852
 40
0.1851851851851852
 40
0.1851851851851852
 40
0.1851851851851852
 40
0.2222222222222222
 40
0.2222222222222222
 40
0.2222222222222222
 40
0.2222222222222222
 40
0.2592592592592592
 40
0.2592592592592592
 40
0.2592592592592592
 40
0.2592592592592592
 40
0.2962962962962963
 40
0.2962962962962963
 40
0.2962962962962963
 40
0.2962962962962963
 40
0.3333333333333333
 40
0.3333333333333333
 40
0.3333333333333333
 40
0.3333333333333333
 40
0.3703703703703703
 40
0.3703703703703703
 40
0.3703703703703703
 40
0.3703703703703703
 40
0.4074074074074074
 40
0.4074074074074074
 40
0.4074074074074074
 40
0.4074074074074074
 40
0.4444444444444444
 40
0.4444444444444444
 40
0.4444444444444444
 40
0.4444444444444444
 40
0.4814814814814815
 40
0.4814814814814815
 40
0.4814814814814815
 40
0.4814814814814815
 40
0.5185185185185185
 40
0.5185185185185185
 40
0.5185185185185185
 40
0.5185185185185185
 40
0.5555555555555556
 40
0.5555555555555556
 40
0.5555555555555556
 40
0.5555555555555556
 40
0.5925925925925926
 40
0.5925925925925926
 40
0.5925925925925926
 40
0.5925925925925926
 40
0.6296296296296297
 40
0.6296296296296297
 40
0.6296296296296297
 40
0.6296296296296297
 40
0.6666666666666666
 40
0.6666666666666666
 40
0.6666666666666666
 40
0.6666666666666666
 40
0.7037037037037037
 40
0.7037037037037037
 40
0.7037037037037037
 40
0.7037037037037037
 40
0.7407407407407407
 40
0.7407407407407407
 40
0.7407407407407407
 40
0.7407407407407407
 40
0.7777777777777778
 40
0.7777777777777778
 40
0.7777777777777778
 40
0.7777777777777778
 40
0.8148148148148148
 40
0.8148148148148148
 40
0.8148148148148148
 40
0.8148148148148148
 40
0.8518518518518519
 40
0.8518518518518519
 40
0.8518518518518519
 40
0.8518518518518519
 40
0.8888888888888888
 40
0.8888888888888888
 40
0.8888888888888888
 40
0.8888888888888888
 40
0.9259259259259259
 40
0.9259259259259259
 40
0.9259259259259259
 40
0.9259259259259259
 40
1.0
 40
1.0
 40
1.0
 40
1.0
 10
-102.1318
 20
160.5878
 30
0.0
 10
-102.1318
 20
160.5878
 30
0.0
 10
-102.1318
 20
149.7188
 30
0.0
 10
-102.1318
 20
149.7188
 30
0.0
 10
-102.1318
 20
149.7188
 30
0.0
 10
-102.1318
 20
148.972
 30
0.0
 10
-102.1508
 20
148.4113
 30
0.0
 10
-102.2638
 20
147.0609
 30
0.0
 10
-102.2638
 20
147.0609
 30
0.0
 10
-102.9285
 20
139.7124
 30
0.0
 10
-109.3123
 20
137.0677
 30
0.0
 10
-116.484
 20
137.0677
 30
0.0
 10
-116.484
 20
137.0677
 30
0.0
 10
-123.6418
 20
137.0677
 30
0.0
 10
-130.0137
 20
139.7124
 30
0.0
 10
-130.6864
 20
147.0609
 30
0.0
 10
-130.6864
 20
147.0609
 30
0.0
 10
-130.8156
 20
148.4113
 30
0.0
 10
-130.8195
 20
148.972
 30
0.0
 10
-130.8345
 20
149.7188
 30
0.0
 10
-130.8345
 20
149.7188
 30
0.0
 10
-130.8345
 20
149.7188
 30
0.0
 10
-130.8195
 20
166.7418
 30
0.0
 10
-130.8195
 20
166.7418
 30
0.0
 10
-130.8195
 20
166.7418
 30
0.0
 10
-130.8195
 20
167.4736
 30
0.0
 10
-130.7524
 20
168.741
 30
0.0
 10
-130.6555
 20
169.3907
 30
0.0
 10
-130.6555
 20
169.3907
 30
0.0
 10
-129.7729
 20
176.9732
 30
0.0
 10
-123.6418
 20
179.392
 30
0.0
 10
-116.4761
 20
179.392
 30
0.0
 10
-116.4761
 20
179.392
 30
0.0
 10
-109.3043
 20
179.392
 30
0.0
 10
-103.0302
 20
177.0001
 30
0.0
 10
-102.2828
 20
169.3907
 30
0.0
 10
-102.2828
 20
169.3907
 30
0.0
 10
-102.1587
 20
168.1273
 30
0.0
 10
-102.2128
 20
166.7418
 30
0.0
 10
-102.2128
 20
166.7418
 30
0.0
 10
-102.2128
 20
166.7418
 30
0.0
 10
-102.2128
 20
166.7418
 30
0.0
 10
-102.2128
 20
165.4115
 30
0.0
 10
-102.2128
 20
165.4115
 30
0.0
 10
-102.2128
 20
165.4115
 30
0.0
 10
-102.2128
 20
165.4115
 30
0.0
 10
-112.4
 20
165.4115
 30
0.0
 10
-112.4
 20
165.4115
 30
0.0
 10
-112.4
 20
165.4115
 30
0.0
 10
-112.4
 20
165.4115
 30
0.0
 10
-112.4
 20
167.6595
 30
0.0
 10
-112.4
 20
167.6595
 30
0.0
 10
-112.4
 20
167.6595
 30
0.0
 10
-112.4
 20
167.6595
 30
0.0
 10
-112.4
 20
168.6251
 30
0.0
 10
-112.508
 20
169.1886
 30
0.0
 10
-112.508
 20
169.1886
 30
0.0
 10
-112.7029
 20
170.0834
 30
0.0
 10
-113.4685
 20
172.1495
 30
0.0
 10
-116.554
 20
172.1495
 30
0.0
 10
-116.554
 20
172.1495
 30
0.0
 10
-119.4947
 20
172.1495
 30
0.0
 10
-120.3512
 20
170.1882
 30
0.0
 10
-120.5762
 20
169.1886
 30
0.0
 10
-120.5762
 20
169.1886
 30
0.0
 10
-120.7011
 20
168.675
 30
0.0
 10
-120.7442
 20
167.9513
 30
0.0
 10
-120.7442
 20
167.2977
 30
0.0
 10
-120.7442
 20
167.2977
 30
0.0
 10
-120.7442
 20
167.2977
 30
0.0
 10
-120.7442
 20
148.8232
 30
0.0
 10
-120.7442
 20
148.8232
 30
0.0
 10
-120.7442
 20
148.8232
 30
0.0
 10
-120.7592
 20
148.2835
 30
0.0
 10
-120.732
 20
147.7417
 30
0.0
 10
-120.6541
 20
147.272
 30
0.0
 10
-120.6541
 20
147.272
 30
0.0
 10
-120.4592
 20
146.1823
 30
0.0
 10
-119.4326
 20
144.3502
 30
0.0
 10
-116.5231
 20
144.3502
 30
0.0
 10
-116.5231
 20
144.3502
 30
0.0
 10
-113.6014
 20
144.3502
 30
0.0
 10
-112.563
 20
146.1823
 30
0.0
 10
-112.4
 20
147.272
 30
0.0
 10
-112.4
 20
147.272
 30
0.0
 10
-112.306
 20
147.7417
 30
0.0
 10
-112.2751
 20
148.2835
 30
0.0
 10
-112.287
 20
148.8232
 30
0.0
 10
-112.287
 20
148.8232
 30
0.0
 10
-112.287
 20
148.8232
 30
0.0
 10
-112.287
 20
154.6783
 30
0.0
 10
-112.287
 20
154.6783
 30
0.0
 10
-112.287
 20
154.6783
 30
0.0
 10
-112.287
 20
154.6783
 30
0.0
 10
-116.433
 20
154.6783
 30
0.0
 10
-116.433
 20
154.6783
 30
0.0
 10
-116.433
 20
154.6783
 30
0.0
 10
-116.433
 20
154.6783
 30
0.0
 10
-116.433
 20
160.5878
 30
0.0
 10
-116.433
 20
160.5878
 30
0.0
 10
-116.433
 20
160.5878
 30
0.0
 10
-116.433
 20
160.5878
 30
0.0
 10
-102.1318
 20
160.5878
 30
0.0
 10
-102.1318
 20
160.5878
 30
0.0
  0
SPLINE
  5
48
330
1F
100
AcDbEntity
  8
Layer 1
 62
   250
370
    20
100
AcDbSpline
210
0.0
220
0.0
230
1.0
 70
    11
 71
     3
 72
    44
 73
    40
 74
     0
 42
0.0000000001
 43
0.0000000001
 40
0.0
 40
0.0
 40
0.0
 40
0.0
 40
0.0909090909090909
 40
0.0909090909090909
 40
0.0909090909090909
 40
0.0909090909090909
 40
0.1818181818181818
 40
0.1818181818181818
 40
0.1818181818181818
 40
0.1818181818181818
 40
0.2727272727272727
 40
0.2727272727272727
 40
0.2727272727272727
 40
0.2727272727272727
 40
0.3636363636363636
 40
0.3636363636363636
 40
0.3636363636363636
 40
0.3636363636363636
 40
0.4545454545454545
 40
0.4545454545454545
 40
0.4545454545454545
 40
0.4545454545454545
 40
0.5454545454545454
 40
0.5454545454545454
 40
0.5454545454545454
 40
0.5454545454545454
 40
0.6363636363636364
 40
0.6363636363636364
 40
0.6363636363636364
 40
0.6363636363636364
 40
0.7272727272727273
 40
0.7272727272727273
 40
0.7272727272727273
 40
0.7272727272727273
 40
0.8181818181818182
 40
0.8181818181818182
 40
0.8181818181818182
 40
0.8181818181818182
 40
1.0
 40
1.0
 40
1.0
 40
1.0
 10
86.7351
 20
104.9604
 30
0.0
 10
86.7351
 20
104.9604
 30
0.0
 10
106.4239
 20
104.9604
 30
0.0
 10
106.4239
 20
104.9604
 30
0.0
 10
106.4239
 20
104.9604
 30
0.0
 10
106.4239
 20
104.9604
 30
0.0
 10
146.8312
 20
41.4037
 30
0.0
 10
146.8312
 20
41.4037
 30
0.0
 10
146.8312
 20
41.4037
 30
0.0
 10
146.8312
 20
41.4037
 30
0.0
 10
146.8312
 20
104.9604
 30
0.0
 10
146.8312
 20
104.9604
 30
0.0
 10
146.8312
 20
104.9604
 30
0.0
 10
146.8312
 20
104.9604
 30
0.0
 10
164.2312
 20
104.9604
 30
0.0
 10
164.2312
 20
104.9604
 30
0.0
 10
164.2312
 20
104.9604
 30
0.0
 10
164.2312
 20
104.9604
 30
0.0
 10
164.2312
 20
11.5946
 30
0.0
 10
164.2312
 20
11.5946
 30
0.0
 10
164.2312
 20
11.5946
 30
0.0
 10
164.2312
 20
11.5946
 30
0.0
 10
145.7027
 20
11.5946
 30
0.0
 10
145.7027
 20
11.5946
 30
0.0
 10
145.7027
 20
11.5946
 30
0.0
 10
145.7027
 20
11.5946
 30
0.0
 10
104.1289
 20
77.2003
 30
0.0
 10
104.1289
 20
77.2003
 30
0.0
 10
104.1289
 20
77.2003
 30
0.0
 10
104.1289
 20
77.2003
 30
0.0
 10
104.1289
 20
11.5946
 30
0.0
 10
104.1289
 20
11.5946
 30
0.0
 10
104.1289
 20
11.5946
 30
0.0
 10
104.1289
 20
11.5946
 30
0.0
 10
86.7351
 20
11.5946
 30
0.0
 10
86.7351
 20
11.5946
 30
0.0
 10
86.7351
 20
11.5946
 30
0.0
 10
86.7351
 20
11.5946
 30
0.0
 10
86.7351
 20
104.9604
 30
0.0
 10
86.7351
 20
104.9604
 30
0.0
  0
SPLINE
  5
49
330
1F
100
AcDbEntity
  8
Layer 1
 62
   250
370
    20
100
AcDbSpline
210
0.0
220
0.0
230
1.0
 70
    11
 71
     3
 72
    20
 73
    16
 74
     0
 42
0.0000000001
 43
0.0000000001
 40
0.0
 40
0.0
 40
0.0
 40
0.0
 40
0.2
 40
0.2
 40
0.2
 40
0.2
 40
0.4
 40
0.4
 40
0.4
 40
0.4
 40
0.6
 40
0.6
 40
0.6
 40
0.6
 40
1.0
 40
1.0
 40
1.0
 40
1.0
 10
232.6867
 20
48.9342
 30
0.0
 10
232.6867
 20
61.4731
 30
0.0
 10
223.0823
 20
71.6994
 30
0.0
 10
210.933
 20
71.6994
 30
0.0
 10
210.933
 20
71.6994
 30
0.0
 10
198.5267
 20
71.6994
 30
0.0
 10
189.194
 20
61.4731
 30
0.0
 10
189.194
 20
48.9342
 30
0.0
 10
189.194
 20
48.9342
 30
0.0
 10
189.194
 20
36.5219
 30
0.0
 10
198.5267
 20
26.3035
 30
0.0
 10
210.933
 20
26.3035
 30
0.0
 10
210.933
 20
26.3035
 30
0.0
 10
223.0823
 20
26.3035
 30
0.0
 10
232.6867
 20
36.5219
 30
0.0
 10
232.6867
 20
48.9342
 30
0.0
  0
SPLINE
  5
4A
330
1F
100
AcDbEntity
  8
Layer 1
 62
   250
370
    20
100
AcDbSpline
210
0.0
220
0.0
230
1.0
 70
    11
 71
     3
 72
    20
 73
    16
 74
     0
 42
0.0000000001
 43
0.0000000001
 40
0.0
 40
0.0
 40
0.0
 40
0.0
 40
0.2
 40
0.2
 40
0.2
 40
0.2
 40
0.4
 40
0.4
 40
0.4
 40
0.4
 40
0.6
 40
0.6
 40
0.6
 40
0.6
 40
1.0
 40
1.0
 40
1.0
 40
1.0
 10
172.1869
 20
48.9342
 30
0.0
 10
172.1869
 20
70.676
 30
0.0
 10
189.311
 20
87.9639
 30
0.0
 10
210.933
 20
87.9639
 30
0.0
 10
210.933
 20
87.9639
 30
0.0
 10
232.4178
 20
87.9639
 30
0.0
 10
249.687
 20
70.676
 30
0.0
 10
249.687
 20
48.9342
 30
0.0
 10
249.687
 20
48.9342
 30
0.0
 10
249.687
 20
27.319
 30
0.0
 10
232.4178
 20
10.0541
 30
0.0
 10
210.933
 20
10.0541
 30
0.0
 10
210.933
 20
10.0541
 30
0.0
 10
189.311
 20
10.0541
 30
0.0
 10
172.1869
 20
27.319
 30
0.0
 10
172.1869
 20
48.9342
 30
0.0
  0
SPLINE
  5
4B
330
1F
100
AcDbEntity
  8
Layer 1
 62
   250
370
    20
100
AcDbSpline
210
0.0
220
0.0
230
1.0
 70
    11
 71
     3
 72
    64
 73
    60
 74
     0
 42
0.0000000001
 43
0.0000000001
 40
0.0
 40
0.0
 40
0.0
 40
0.0
 40
0.0625
 40
0.0625
 40
0.0625
 40
0.0625
 40
0.125
 40
0.125
 40
0.125
 40
0.125
 40
0.1875
 40
0.1875
 40
0.1875
 40
0.1875
 40
0.25
 40
0.25
 40
0.25
 40
0.25
 40
0.3125
 40
0.3125
 40
0.3125
 40
0.3125
 40
0.375
 40
0.375
 40
0.375
 40
0.375
 40
0.4375
 40
0.4375
 40
0.4375
 40
0.4375
 40
0.5
 40
0.5
 40
0.5
 40
0.5
 40
0.5625
 40
0.5625
 40
0.5625
 40
0.5625
 40
0.625
 40
0.625
 40
0.625
 40
0.625
 40
0.6875
 40
0.6875
 40
0.6875
 40
0.6875
 40
0.75
 40
0.75
 40
0.75
 40
0.75
 40
0.8125
 40
0.8125
 40
0.8125
 40
0.8125
 40
0.875
 40
0.875
 40
0.875
 40
0.875
 40
1.0
 40
1.0
 40
1.0
 40
1.0
 10
250.7135
 20
86.4123
 30
0.0
 10
250.7135
 20
86.4123
 30
0.0
 10
263.5128
 20
86.4123
 30
0.0
 10
263.5128
 20
86.4123
 30
0.0
 10
263.5128
 20
86.4123
 30
0.0
 10
263.5128
 20
86.4123
 30
0.0
 10
263.5128
 20
97.8139
 30
0.0
 10
263.5128
 20
97.8139
 30
0.0
 10
263.5128
 20
97.8139
 30
0.0
 10
263.5128
 20
97.8139
 30
0.0
 10
280.9046
 20
109.6983
 30
0.0
 10
280.9046
 20
109.6983
 30
0.0
 10
280.9046
 20
109.6983
 30
0.0
 10
280.9046
 20
109.6983
 30
0.0
 10
280.9046
 20
86.4123
 30
0.0
 10
280.9046
 20
86.4123
 30
0.0
 10
280.9046
 20
86.4123
 30
0.0
 10
280.9046
 20
86.4123
 30
0.0
 10
296.1366
 20
86.4123
 30
0.0
 10
296.1366
 20
86.4123
 30
0.0
 10
296.1366
 20
86.4123
 30
0.0
 10
296.1366
 20
86.4123
 30
0.0
 10
296.1366
 20
70.9443
 30
0.0
 10
296.1366
 20
70.9443
 30
0.0
 10
296.1366
 20
70.9443
 30
0.0
 10
296.1366
 20
70.9443
 30
0.0
 10
280.9046
 20
70.9443
 30
0.0
 10
280.9046
 20
70.9443
 30
0.0
 10
280.9046
 20
70.9443
 30
0.0
 10
280.9046
 20
70.9443
 30
0.0
 10
280.9046
 20
42.9323
 30
0.0
 10
280.9046
 20
42.9323
 30
0.0
 10
280.9046
 20
42.9323
 30
0.0
 10
280.9046
 20
29.8585
 30
0.0
 10
282.7058
 20
27.8324
 30
0.0
 10
296.1366
 20
27.8324
 30
0.0
 10
296.1366
 20
27.8324
 30
0.0
 10
296.1366
 20
27.8324
 30
0.0
 10
296.1366
 20
11.5948
 30
0.0
 10
296.1366
 20
11.5948
 30
0.0
 10
296.1366
 20
11.5948
 30
0.0
 10
296.1366
 20
11.5948
 30
0.0
 10
293.7096
 20
11.5948
 30
0.0
 10
293.7096
 20
11.5948
 30
0.0
 10
293.7096
 20
11.5948
 30
0.0
 10
270.5454
 20
11.5948
 30
0.0
 10
263.5128
 20
19.0097
 30
0.0
 10
263.5128
 20
42.7924
 30
0.0
 10
263.5128
 20
42.7924
 30
0.0
 10
263.5128
 20
42.7924
 30
0.0
 10
263.5128
 20
70.9443
 30
0.0
 10
263.5128
 20
70.9443
 30
0.0
 10
263.5128
 20
70.9443
 30
0.0
 10
263.5128
 20
70.9443
 30
0.0
 10
250.7135
 20
70.9443
 30
0.0
 10
250.7135
 20
70.9443
 30
0.0
 10
250.7135
 20
70.9443
 30
0.0
 10
250.7135
 20
70.9443
 30
0.0
 10
250.7135
 20
86.4123
 30
0.0
 10
250.7135
 20
86.4123
 30
0.0
  0
SPLINE
  5
4C
330
1F
100
AcDbEntity
  8
Layer 1
 62
   250
370
    20
100
AcDbSpline
210
0.0
220
0.0
230
1.0
 70
    11
 71
     3
 72
    16
 73
    12
 74
     0
 42
0.0000000001
 43
0.0000000001
 40
0.0
 40
0.0
 40
0.0
 40
0.0
 40
0.25
 40
0.25
 40
0.25
 40
0.25
 40
0.5
 40
0.5
 40
0.5
 40
0.5
 40
1.0
 40
1.0
 40
1.0
 40
1.0
 10
316.8655
 20
57.3755
 30
0.0
 10
316.8655
 20
57.3755
 30
0.0
 10
359.3298
 20
57.3755
 30
0.0
 10
359.3298
 20
57.3755
 30
0.0
 10
359.3298
 20
57.3755
 30
0.0
 10
356.7619
 20
67.3658
 30
0.0
 10
349.0907
 20
72.7194
 30
0.0
 10
338.3464
 20
72.7194
 30
0.0
 10
338.3464
 20
72.7194
 30
0.0
 10
327.9954
 20
72.7194
 30
0.0
 10
319.93
 20
66.4631
 30
0.0
 10
316.8655
 20
57.3755
 30
0.0
  0
SPLINE
  5
4D
330
1F
100
AcDbEntity
  8
Layer 1
 62
   250
370
    20
100
AcDbSpline
210
0.0
220
0.0
230
1.0
 70
    11
 71
     3
 72
    40
 73
    36
 74
     0
 42
0.0000000001
 43
0.0000000001
 40
0.0
 40
0.0
 40
0.0
 40
0.0
 40
0.1
 40
0.1
 40
0.1
 40
0.1
 40
0.2
 40
0.2
 40
0.2
 40
0.2
 40
0.3
 40
0.3
 40
0.3
 40
0.3
 40
0.4
 40
0.4
 40
0.4
 40
0.4
 40
0.5
 40
0.5
 40
0.5
 40
0.5
 40
0.6
 40
0.6
 40
0.6
 40
0.6
 40
0.7
 40
0.7
 40
0.7
 40
0.7
 40
0.8
 40
0.8
 40
0.8
 40
0.8
 40
1.0
 40
1.0
 40
1.0
 40
1.0
 10
373.9101
 20
30.279
 30
0.0
 10
367.3781
 20
18.2467
 30
0.0
 10
355.6116
 20
10.0535
 30
0.0
 10
338.9921
 20
10.0535
 30
0.0
 10
338.9921
 20
10.0535
 30
0.0
 10
315.4571
 20
10.0535
 30
0.0
 10
299.4816
 20
27.2054
 30
0.0
 10
299.4816
 20
48.8064
 30
0.0
 10
299.4816
 20
48.8064
 30
0.0
 10
299.4816
 20
70.6763
 30
0.0
 10
316.4677
 20
87.9641
 30
0.0
 10
338.3464
 20
87.9641
 30
0.0
 10
338.3464
 20
87.9641
 30
0.0
 10
360.6062
 20
87.9641
 30
0.0
 10
376.8437
 20
71.5787
 30
0.0
 10
376.8437
 20
49.447
 30
0.0
 10
376.8437
 20
49.447
 30
0.0
 10
376.8437
 20
49.447
 30
0.0
 10
376.8437
 20
42.932
 30
0.0
 10
376.8437
 20
42.932
 30
0.0
 10
376.8437
 20
42.932
 30
0.0
 10
376.8437
 20
42.932
 30
0.0
 10
315.9628
 20
42.932
 30
0.0
 10
315.9628
 20
42.932
 30
0.0
 10
315.9628
 20
42.932
 30
0.0
 10
318.2657
 20
32.432
 30
0.0
 10
326.715
 20
25.2773
 30
0.0
 10
338.9921
 20
25.2773
 30
0.0
 10
338.9921
 20
25.2773
 30
0.0
 10
348.5778
 20
25.2773
 30
0.0
 10
356.1323
 20
30.5289
 30
0.0
 10
359.7106
 20
38.4472
 30
0.0
 10
359.7106
 20
38.4472
 30
0.0
 10
359.7106
 20
38.4472
 30
0.0
 10
373.9101
 20
30.279
 30
0.0
 10
373.9101
 20
30.279
 30
0.0
  0
SPLINE
  5
4E
330
1F
100
AcDbEntity
  8
Layer 1
 62
   250
370
    20
100
AcDbSpline
210
0.0
220
0.0
230
1.0
 70
    11
 71
     3
 72
    64
 73
    60
 74
     0
 42
0.0000000001
 43
0.0000000001
 40
0.0
 40
0.0
 40
0.0
 40
0.0
 40
0.0625
 40
0.0625
 40
0.0625
 40
0.0625
 40
0.125
 40
0.125
 40
0.125
 40
0.125
 40
0.1875
 40
0.1875
 40
0.1875
 40
0.1875
 40
0.25
 40
0.25
 40
0.25
 40
0.25
 40
0.3125
 40
0.3125
 40
0.3125
 40
0.3125
 40
0.375
 40
0.375
 40
0.375
 40
0.375
 40
0.4375
 40
0.4375
 40
0.4375
 40
0.4375
 40
0.5
 40
0.5
 40
0.5
 40
0.5
 40
0.5625
 40
0.5625
 40
0.5625
 40
0.5625
 40
0.625
 40
0.625
 40
0.625
 40
0.625
 40
0.6875
 40
0.6875
 40
0.6875
 40
0.6875
 40
0.75
 40
0.75
 40
0.75
 40
0.75
 40
0.8125
 40
0.8125
 40
0.8125
 40
0.8125
 40
0.875
 40
0.875
 40
0.875
 40
0.875
 40
1.0
 40
1.0
 40
1.0
 40
1.0
 10
387.4401
 20
28.2251
 30
0.0
 10
387.4401
 20
28.2251
 30
0.0
 10
403.5447
 20
37.5606
 30
0.0
 10
403.5447
 20
37.5606
 30
0.0
 10
403.5447
 20
37.5606
 30
0.0
 10
406.2293
 20
31.5395
 30
0.0
 10
411.0882
 20
26.3038
 30
0.0
 10
419.4023
 20
26.3038
 30
0.0
 10
419.4023
 20
26.3038
 30
0.0
 10
426.9438
 20
26.3038
 30
0.0
 10
433.7565
 20
32.3082
 30
0.0
 10
433.7565
 20
41.0099
 30
0.0
 10
433.7565
 20
41.0099
 30
0.0
 10
433.7565
 20
49.6969
 30
0.0
 10
428.1193
 20
56.4779
 30
0.0
 10
419.0314
 20
56.4779
 30
0.0
 10
419.0314
 20
56.4779
 30
0.0
 10
411.7458
 20
56.4779
 30
0.0
 10
407.264
 20
52.5178
 30
0.0
 10
404.0584
 20
47.0254
 30
0.0
 10
404.0584
 20
47.0254
 30
0.0
 10
404.0584
 20
47.0254
 30
0.0
 10
388.5876
 20
54.9445
 30
0.0
 10
388.5876
 20
54.9445
 30
0.0
 10
388.5876
 20
54.9445
 30
0.0
 10
388.5876
 20
54.9445
 30
0.0
 10
395.2365
 20
104.9604
 30
0.0
 10
395.2365
 20
104.9604
 30
0.0
 10
395.2365
 20
104.9604
 30
0.0
 10
395.2365
 20
104.9604
 30
0.0
 10
447.1613
 20
104.9604
 30
0.0
 10
447.1613
 20
104.9604
 30
0.0
 10
447.1613
 20
104.9604
 30
0.0
 10
447.1613
 20
104.9604
 30
0.0
 10
447.1613
 20
88.711
 30
0.0
 10
447.1613
 20
88.711
 30
0.0
 10
447.1613
 20
88.711
 30
0.0
 10
447.1613
 20
88.711
 30
0.0
 10
409.0541
 20
88.711
 30
0.0
 10
409.0541
 20
88.711
 30
0.0
 10
409.0541
 20
88.711
 30
0.0
 10
409.0541
 20
88.711
 30
0.0
 10
406.3693
 20
68.0076
 30
0.0
 10
406.3693
 20
68.0076
 30
0.0
 10
406.3693
 20
68.0076
 30
0.0
 10
409.9446
 20
70.3034
 30
0.0
 10
414.9285
 20
72.3454
 30
0.0
 10
420.9535
 20
72.3454
 30
0.0
 10
420.9535
 20
72.3454
 30
0.0
 10
437.5679
 20
72.3454
 30
0.0
 10
451.2546
 20
61.3365
 30
0.0
 10
451.2546
 20
41.0099
 30
0.0
 10
451.2546
 20
41.0099
 30
0.0
 10
451.2546
 20
22.8485
 30
0.0
 10
437.8408
 20
10.3232
 30
0.0
 10
419.2773
 20
10.3232
 30
0.0
 10
419.2773
 20
10.3232
 30
0.0
 10
402.9149
 20
10.3232
 30
0.0
 10
392.17
 20
18.8813
 30
0.0
 10
387.4401
 20
28.2251
 30
0.0
  0
SPLINE
  5
4F
330
1F
100
AcDbEntity
  8
Layer 1
 62
   250
370
    20
100
AcDbSpline
210
0.0
220
0.0
230
1.0
 70
    11
 71
     3
 72
    20
 73
    16
 74
     0
 42
0.0000000001
 43
0.0000000001
 40
0.0
 40
0.0
 40
0.0
 40
0.0
 40
0.2
 40
0.2
 40
0.2
 40
0.2
 40
0.4
 40
0.4
 40
0.4
 40
0.4
 40
0.6
 40
0.6
 40
0.6
 40
0.6
 40
1.0
 40
1.0
 40
1.0
 40
1.0
 10
-206.9225
 20
11.3775
 30
0.0
 10
-206.9225
 20
11.3775
 30
0.0
 10
-189.5335
 20
11.3775
 30
0.0
 10
-189.5335
 20
11.3775
 30
0.0
 10
-189.5335
 20
11.3775
 30
0.0
 10
-189.5335
 20
11.3775
 30
0.0
 10
-189.5335
 20
105.9405
 30
0.0
 10
-189.5335
 20
105.9405
 30
0.0
 10
-189.5335
 20
105.9405
 30
0.0
 10
-189.5335
 20
105.9405
 30
0.0
 10
-206.9225
 20
105.9405
 30
0.0
 10
-206.9225
 20
105.9405
 30
0.0
 10
-206.9225
 20
105.9405
 30
0.0
 10
-206.9225
 20
105.9405
 30
0.0
 10
-206.9225
 20
11.3775
 30
0.0
 10
-206.9225
 20
11.3775
 30
0.0
  0
SPLINE
  5
50
330
1F
100
AcDbEntity
  8
Layer 1
 62
   250
370
    20
100
AcDbSpline
210
0.0
220
0.0
230
1.0
 70
    11
 71
     3
 72
    20
 73
    16
 74
     0
 42
0.0000000001
 43
0.0000000001
 40
0.0
 40
0.0
 40
0.0
 40
0.0
 40
0.2
 40
0.2
 40
0.2
 40
0.2
 40
0.4
 40
0.4
 40
0.4
 40
0.4
 40
0.6
 40
0.6
 40
0.6
 40
0.6
 40
1.0
 40
1.0
 40
1.0
 40
1.0
 10
-140.9572
 20
25.689
 30
0.0
 10
-153.7471
 20
25.689
 30
0.0
 10
-163.5776
 20
35.915
 30
0.0
 10
-163.5776
 20
48.9651
 30
0.0
 10
-163.5776
 20
48.9651
 30
0.0
 10
-163.5776
 20
61.8581
 30
0.0
 10
-153.7471
 20
71.9485
 30
0.0
 10
-140.9572
 20
71.9485
 30
0.0
 10
-140.9572
 20
71.9485
 30
0.0
 10
-128.174
 20
71.9485
 30
0.0
 10
-118.5886
 20
61.5972
 30
0.0
 10
-118.5886
 20
48.9651
 30
0.0
 10
-118.5886
 20
48.9651
 30
0.0
 10
-118.5886
 20
36.0431
 30
0.0
 10
-128.174
 20
25.689
 30
0.0
 10
-140.9572
 20
25.689
 30
0.0
  0
SPLINE
  5
51
330
1F
100
AcDbEntity
  8
Layer 1
 62
   250
370
    20
100
AcDbSpline
210
0.0
220
0.0
230
1.0
 70
    11
 71
     3
 72
    20
 73
    16
 74
     0
 42
0.0000000001
 43
0.0000000001
 40
0.0
 40
0.0
 40
0.0
 40
0.0
 40
0.2
 40
0.2
 40
0.2
 40
0.2
 40
0.4
 40
0.4
 40
0.4
 40
0.4
 40
0.6
 40
0.6
 40
0.6
 40
0.6
 40
1.0
 40
1.0
 40
1.0
 40
1.0
 10
-257.5189
 20
25.689
 30
0.0
 10
-270.2941
 20
25.689
 30
0.0
 10
-280.1283
 20
35.915
 30
0.0
 10
-280.1283
 20
48.9651
 30
0.0
 10
-280.1283
 20
48.9651
 30
0.0
 10
-280.1283
 20
61.8581
 30
0.0
 10
-270.2941
 20
71.9485
 30
0.0
 10
-257.5189
 20
71.9485
 30
0.0
 10
-257.5189
 20
71.9485
 30
0.0
 10
-244.744
 20
71.9485
 30
0.0
 10
-235.1504
 20
61.5972
 30
0.0
 10
-235.1504
 20
48.9651
 30
0.0
 10
-235.1504
 20
48.9651
 30
0.0
 10
-235.1504
 20
36.0431
 30
0.0
 10
-244.744
 20
25.689
 30
0.0
 10
-257.5189
 20
25.689
 30
0.0
  0
SPLINE
  5
52
330
1F
100
AcDbEntity
  8
Layer 1
 62
   250
370
    20
100
AcDbSpline
210
0.0
220
0.0
230
1.0
 70
    11
 71
     3
 72
    52
 73
    48
 74
     0
 42
0.0000000001
 43
0.0000000001
 40
0.0
 40
0.0
 40
0.0
 40
0.0
 40
0.0769230769230769
 40
0.0769230769230769
 40
0.0769230769230769
 40
0.0769230769230769
 40
0.1538461538461539
 40
0.1538461538461539
 40
0.1538461538461539
 40
0.1538461538461539
 40
0.2307692307692308
 40
0.2307692307692308
 40
0.2307692307692308
 40
0.2307692307692308
 40
0.3076923076923077
 40
0.3076923076923077
 40
0.3076923076923077
 40
0.3076923076923077
 40
0.3846153846153846
 40
0.3846153846153846
 40
0.3846153846153846
 40
0.3846153846153846
 40
0.4615384615384616
 40
0.4615384615384616
 40
0.4615384615384616
 40
0.4615384615384616
 40
0.5384615384615384
 40
0.5384615384615384
 40
0.5384615384615384
 40
0.5384615384615384
 40
0.6153846153846154
 40
0.6153846153846154
 40
0.6153846153846154
 40
0.6153846153846154
 40
0.6923076923076923
 40
0.6923076923076923
 40
0.6923076923076923
 40
0.6923076923076923
 40
0.7692307692307693
 40
0.7692307692307693
 40
0.7692307692307693
 40
0.7692307692307693
 40
0.8461538461538461
 40
0.8461538461538461
 40
0.8461538461538461
 40
0.8461538461538461
 40
1.0
 40
1.0
 40
1.0
 40
1.0
 10
-97.5024
 20
11.3775
 30
0.0
 10
-97.5024
 20
11.3775
 30
0.0
 10
-76.425
 20
11.3775
 30
0.0
 10
-76.425
 20
11.3775
 30
0.0
 10
-76.425
 20
11.3775
 30
0.0
 10
-76.425
 20
11.3775
 30
0.0
 10
-58.6623
 20
36.2919
 30
0.0
 10
-58.6623
 20
36.2919
 30
0.0
 10
-58.6623
 20
36.2919
 30
0.0
 10
-58.6623
 20
36.2919
 30
0.0
 10
-40.3828
 20
11.3775
 30
0.0
 10
-40.3828
 20
11.3775
 30
0.0
 10
-40.3828
 20
11.3775
 30
0.0
 10
-40.3828
 20
11.3775
 30
0.0
 10
-19.2966
 20
11.3775
 30
0.0
 10
-19.2966
 20
11.3775
 30
0.0
 10
-19.2966
 20
11.3775
 30
0.0
 10
-19.2966
 20
11.3775
 30
0.0
 10
-47.9103
 20
49.3388
 30
0.0
 10
-47.9103
 20
49.3388
 30
0.0
 10
-47.9103
 20
49.3388
 30
0.0
 10
-47.9103
 20
49.3388
 30
0.0
 10
-21.0818
 20
86.1318
 30
0.0
 10
-21.0818
 20
86.1318
 30
0.0
 10
-21.0818
 20
86.1318
 30
0.0
 10
-21.0818
 20
86.1318
 30
0.0
 10
-41.5303
 20
86.1318
 30
0.0
 10
-41.5303
 20
86.1318
 30
0.0
 10
-41.5303
 20
86.1318
 30
0.0
 10
-41.5303
 20
86.1318
 30
0.0
 10
-58.3945
 20
62.4999
 30
0.0
 10
-58.3945
 20
62.4999
 30
0.0
 10
-58.3945
 20
62.4999
 30
0.0
 10
-58.3945
 20
62.4999
 30
0.0
 10
-75.3905
 20
86.1318
 30
0.0
 10
-75.3905
 20
86.1318
 30
0.0
 10
-75.3905
 20
86.1318
 30
0.0
 10
-75.3905
 20
86.1318
 30
0.0
 10
-96.4866
 20
86.1318
 30
0.0
 10
-96.4866
 20
86.1318
 30
0.0
 10
-96.4866
 20
86.1318
 30
0.0
 10
-96.4866
 20
86.1318
 30
0.0
 10
-69.3873
 20
49.4589
 30
0.0
 10
-69.3873
 20
49.4589
 30
0.0
 10
-69.3873
 20
49.4589
 30
0.0
 10
-69.3873
 20
49.4589
 30
0.0
 10
-97.5024
 20
11.3775
 30
0.0
 10
-97.5024
 20
11.3775
 30
0.0
  0
SPLINE
  5
53
330
1F
100
AcDbEntity
  8
Layer 1
 62
   250
370
    20
100
AcDbSpline
210
0.0
220
0.0
230
1.0
 70
    11
 71
     3
 72
    36
 73
    32
 74
     0
 42
0.0000000001
 43
0.0000000001
 40
0.0
 40
0.0
 40
0.0
 40
0.0
 40
0.1111111111111111
 40
0.1111111111111111
 40
0.1111111111111111
 40
0.1111111111111111
 40
0.2222222222222222
 40
0.2222222222222222
 40
0.2222222222222222
 40
0.2222222222222222
 40
0.3333333333333333
 40
0.3333333333333333
 40
0.3333333333333333
 40
0.3333333333333333
 40
0.4444444444444444
 40
0.4444444444444444
 40
0.4444444444444444
 40
0.4444444444444444
 40
0.5555555555555556
 40
0.5555555555555556
 40
0.5555555555555556
 40
0.5555555555555556
 40
0.6666666666666666
 40
0.6666666666666666
 40
0.6666666666666666
 40
0.6666666666666666
 40
0.7777777777777778
 40
0.7777777777777778
 40
0.7777777777777778
 40
0.7777777777777778
 40
1.0
 40
1.0
 40
1.0
 40
1.0
 10
15.839
 20
-16.8694
 30
0.0
 10
15.839
 20
-16.8694
 30
0.0
 10
57.8904
 20
86.1318
 30
0.0
 10
57.8904
 20
86.1318
 30
0.0
 10
57.8904
 20
86.1318
 30
0.0
 10
57.8904
 20
86.1318
 30
0.0
 10
39.7441
 20
86.1318
 30
0.0
 10
39.7441
 20
86.1318
 30
0.0
 10
39.7441
 20
86.1318
 30
0.0
 10
39.7441
 20
86.1318
 30
0.0
 10
20.072
 20
35.7821
 30
0.0
 10
20.072
 20
35.7821
 30
0.0
 10
20.072
 20
35.7821
 30
0.0
 10
20.072
 20
35.7821
 30
0.0
 10
-0.7711
 20
86.1318
 30
0.0
 10
-0.7711
 20
86.1318
 30
0.0
 10
-0.7711
 20
86.1318
 30
0.0
 10
-0.7711
 20
86.1318
 30
0.0
 10
-19.1648
 20
86.1318
 30
0.0
 10
-19.1648
 20
86.1318
 30
0.0
 10
-19.1648
 20
86.1318
 30
0.0
 10
-19.1648
 20
86.1318
 30
0.0
 10
11.4981
 20
15.3416
 30
0.0
 10
11.4981
 20
15.3416
 30
0.0
 10
11.4981
 20
15.3416
 30
0.0
 10
11.4981
 20
15.3416
 30
0.0
 10
-1.9118
 20
-16.8694
 30
0.0
 10
-1.9118
 20
-16.8694
 30
0.0
 10
-1.9118
 20
-16.8694
 30
0.0
 10
-1.9118
 20
-16.8694
 30
0.0
 10
15.839
 20
-16.8694
 30
0.0
 10
15.839
 20
-16.8694
 30
0.0
  0
SPLINE
  5
54
330
1F
100
AcDbEntity
  8
Layer 1
 62
   250
370
    20
100
AcDbSpline
210
0.0
220
0.0
230
1.0
 70
    11
 71
     3
 72
    56
 73
    52
 74
     0
 42
0.0000000001
 43
0.0000000001
 40
0.0
 40
0.0
 40
0.0
 40
0.0
 40
0.0714285714285714
 40
0.0714285714285714
 40
0.0714285714285714
 40
0.0714285714285714
 40
0.1428571428571428
 40
0.1428571428571428
 40
0.1428571428571428
 40
0.1428571428571428
 40
0.2142857142857143
 40
0.2142857142857143
 40
0.2142857142857143
 40
0.2142857142857143
 40
0.2857142857142857
 40
0.2857142857142857
 40
0.2857142857142857
 40
0.2857142857142857
 40
0.3571428571428572
 40
0.3571428571428572
 40
0.3571428571428572
 40
0.3571428571428572
 40
0.4285714285714285
 40
0.4285714285714285
 40
0.4285714285714285
 40
0.4285714285714285
 40
0.5
 40
0.5
 40
0.5
 40
0.5
 40
0.5714285714285714
 40
0.5714285714285714
 40
0.5714285714285714
 40
0.5714285714285714
 40
0.6428571428571429
 40
0.6428571428571429
 40
0.6428571428571429
 40
0.6428571428571429
 40
0.7142857142857143
 40
0.7142857142857143
 40
0.7142857142857143
 40
0.7142857142857143
 40
0.7857142857142857
 40
0.7857142857142857
 40
0.7857142857142857
 40
0.7857142857142857
 40
0.8571428571428571
 40
0.8571428571428571
 40
0.8571428571428571
 40
0.8571428571428571
 40
1.0
 40
1.0
 40
1.0
 40
1.0
 10
-308.6373
 20
81.9119
 30
0.0
 10
-316.5545
 20
95.9743
 30
0.0
 10
-331.7765
 20
105.8167
 30
0.0
 10
-351.0636
 20
105.8167
 30
0.0
 10
-351.0636
 20
105.8167
 30
0.0
 10
-378.6877
 20
105.8167
 30
0.0
 10
-398.7454
 20
84.4865
 30
0.0
 10
-398.7454
 20
57.8818
 30
0.0
 10
-398.7454
 20
57.8818
 30
0.0
 10
-398.7454
 20
32.0858
 30
0.0
 10
-379.4343
 20
9.9742
 30
0.0
 10
-350.2937
 20
9.9742
 30
0.0
 10
-350.2937
 20
9.9742
 30
0.0
 10
-322.4478
 20
9.9742
 30
0.0
 10
-304.6732
 20
31.571
 30
0.0
 10
-304.6732
 20
56.7533
 30
0.0
 10
-304.6732
 20
56.7533
 30
0.0
 10
-304.6732
 20
56.7533
 30
0.0
 10
-304.6732
 20
63.6312
 30
0.0
 10
-304.6732
 20
63.6312
 30
0.0
 10
-304.6732
 20
63.6312
 30
0.0
 10
-304.6732
 20
63.6312
 30
0.0
 10
-353.1016
 20
63.6312
 30
0.0
 10
-353.1016
 20
63.6312
 30
0.0
 10
-353.1016
 20
63.6312
 30
0.0
 10
-353.1016
 20
63.6312
 30
0.0
 10
-353.1016
 20
47.033
 30
0.0
 10
-353.1016
 20
47.033
 30
0.0
 10
-353.1016
 20
47.033
 30
0.0
 10
-353.1016
 20
47.033
 30
0.0
 10
-323.3224
 20
47.033
 30
0.0
 10
-323.3224
 20
47.033
 30
0.0
 10
-323.3224
 20
47.033
 30
0.0
 10
-326.6558
 20
34.7517
 30
0.0
 10
-336.3702
 20
26.8413
 30
0.0
 10
-350.2937
 20
26.8413
 30
0.0
 10
-350.2937
 20
26.8413
 30
0.0
 10
-368.4443
 20
26.8413
 30
0.0
 10
-381.4924
 20
40.6328
 30
0.0
 10
-381.4924
 20
57.8818
 30
0.0
 10
-381.4924
 20
57.8818
 30
0.0
 10
-381.4924
 20
74.8971
 30
0.0
 10
-368.3276
 20
88.9725
 30
0.0
 10
-350.9355
 20
88.9725
 30
0.0
 10
-350.9355
 20
88.9725
 30
0.0
 10
-338.6652
 20
88.9725
 30
0.0
 10
-329.7215
 20
83.339
 30
0.0
 10
-323.965
 20
72.7191
 30
0.0
 10
-323.965
 20
72.7191
 30
0.0
 10
-323.965
 20
72.7191
 30
0.0
 10
-308.6373
 20
81.9119
 30
0.0
 10
-308.6373
 20
81.9119
 30
0.0
  0
SPLINE
  5
55
330
1F
100
AcDbEntity
  8
Layer 1
 62
   250
370
    20
100
AcDbSpline
210
0.0
220
0.0
230
1.0
 70
    11
 71
     3
 72
    40
 73
    36
 74
     0
 42
0.0000000001
 43
0.0000000001
 40
0.0
 40
0.0
 40
0.0
 40
0.0
 40
0.1
 40
0.1
 40
0.1
 40
0.1
 40
0.2
 40
0.2
 40
0.2
 40
0.2
 40
0.3
 40
0.3
 40
0.3
 40
0.3
 40
0.4
 40
0.4
 40
0.4
 40
0.4
 40
0.5
 40
0.5
 40
0.5
 40
0.5
 40
0.6
 40
0.6
 40
0.6
 40
0.6
 40
0.7
 40
0.7
 40
0.7
 40
0.7
 40
0.8
 40
0.8
 40
0.8
 40
0.8
 40
1.0
 40
1.0
 40
1.0
 40
1.0
 10
-102.2321
 20
86.1318
 30
0.0
 10
-102.2321
 20
86.1318
 30
0.0
 10
-119.495
 20
86.1318
 30
0.0
 10
-119.495
 20
86.1318
 30
0.0
 10
-119.495
 20
86.1318
 30
0.0
 10
-119.495
 20
86.1318
 30
0.0
 10
-119.495
 20
77.1811
 30
0.0
 10
-119.495
 20
77.1811
 30
0.0
 10
-119.495
 20
77.1811
 30
0.0
 10
-124.8556
 20
83.7277
 30
0.0
 10
-133.6704
 20
87.661
 30
0.0
 10
-143.5049
 20
87.661
 30
0.0
 10
-143.5049
 20
87.661
 30
0.0
 10
-162.4381
 20
87.661
 30
0.0
 10
-180.5858
 20
73.4926
 30
0.0
 10
-180.5858
 20
48.6902
 30
0.0
 10
-180.5858
 20
48.6902
 30
0.0
 10
-180.5858
 20
24.3003
 30
0.0
 10
-161.8003
 20
9.837
 30
0.0
 10
-143.7619
 20
9.837
 30
0.0
 10
-143.7619
 20
9.837
 30
0.0
 10
-133.9353
 20
9.837
 30
0.0
 10
-124.9916
 20
14.1791
 30
0.0
 10
-119.495
 20
21.2078
 30
0.0
 10
-119.495
 20
21.2078
 30
0.0
 10
-119.495
 20
21.2078
 30
0.0
 10
-119.495
 20
11.3775
 30
0.0
 10
-119.495
 20
11.3775
 30
0.0
 10
-119.495
 20
11.3775
 30
0.0
 10
-119.495
 20
11.3775
 30
0.0
 10
-102.2321
 20
11.3775
 30
0.0
 10
-102.2321
 20
11.3775
 30
0.0
 10
-102.2321
 20
11.3775
 30
0.0
 10
-102.2321
 20
11.3775
 30
0.0
 10
-102.2321
 20
86.1318
 30
0.0
 10
-102.2321
 20
86.1318
 30
0.0
  0
SPLINE
  5
56
330
1F
100
AcDbEntity
  8
Layer 1
 62
   250
370
    20
100
AcDbSpline
210
0.0
220
0.0
230
1.0
 70
    11
 71
     3
 72
    40
 73
    36
 74
     0
 42
0.0000000001
 43
0.0000000001
 40
0.0
 40
0.0
 40
0.0
 40
0.0
 40
0.1
 40
0.1
 40
0.1
 40
0.1
 40
0.2
 40
0.2
 40
0.2
 40
0.2
 40
0.3
 40
0.3
 40
0.3
 40
0.3
 40
0.4
 40
0.4
 40
0.4
 40
0.4
 40
0.5
 40
0.5
 40
0.5
 40
0.5
 40
0.6
 40
0.6
 40
0.6
 40
0.6
 40
0.7
 40
0.7
 40
0.7
 40
0.7
 40
0.8
 40
0.8
 40
0.8
 40
0.8
 40
1.0
 40
1.0
 40
1.0
 40
1.0
 10
-218.785
 20
86.1318
 30
0.0
 10
-218.785
 20
86.1318
 30
0.0
 10
-236.061
 20
86.1318
 30
0.0
 10
-236.061
 20
86.1318
 30
0.0
 10
-236.061
 20
86.1318
 30
0.0
 10
-236.061
 20
86.1318
 30
0.0
 10
-236.061
 20
77.1811
 30
0.0
 10
-236.061
 20
77.1811
 30
0.0
 10
-236.061
 20
77.1811
 30
0.0
 10
-241.4134
 20
83.7277
 30
0.0
 10
-250.2333
 20
87.661
 30
0.0
 10
-260.0749
 20
87.661
 30
0.0
 10
-260.0749
 20
87.661
 30
0.0
 10
-278.989
 20
87.661
 30
0.0
 10
-297.1365
 20
73.4926
 30
0.0
 10
-297.1365
 20
48.6902
 30
0.0
 10
-297.1365
 20
48.6902
 30
0.0
 10
-297.1365
 20
24.3003
 30
0.0
 10
-278.3544
 20
9.837
 30
0.0
 10
-260.3316
 20
9.837
 30
0.0
 10
-260.3316
 20
9.837
 30
0.0
 10
-250.4824
 20
9.837
 30
0.0
 10
-241.5344
 20
14.1791
 30
0.0
 10
-236.061
 20
21.2078
 30
0.0
 10
-236.061
 20
21.2078
 30
0.0
 10
-236.061
 20
21.2078
 30
0.0
 10
-236.061
 20
11.3775
 30
0.0
 10
-236.061
 20
11.3775
 30
0.0
 10
-236.061
 20
11.3775
 30
0.0
 10
-236.061
 20
11.3775
 30
0.0
 10
-218.785
 20
11.3775
 30
0.0
 10
-218.785
 20
11.3775
 30
0.0
 10
-218.785
 20
11.3775
 30
0.0
 10
-218.785
 20
11.3775
 30
0.0
 10
-218.785
 20
86.1318
 30
0.0
 10
-218.785
 20
86.1318
 30
0.0
  0
ENDSEC
  0
SECTION
  2
OBJECTS
  0
DICTIONARY
  5
C
330
0
100
AcDbDictionary
281
     1
  3
ACAD_GROUP
350
D
  3
ACAD_LAYOUT
350
1A
  3
ACAD_MATERIAL
350
3B
  3
ACAD_MLEADERSTYLE
350
78
  3
ACAD_MLINESTYLE
350
17
  3
ACAD_PLOTSETTINGS
350
19
  3
ACAD_PLOTSTYLENAME
350
E
  3
ACAD_TABLESTYLE
350
77
  3
ACAD_VISUALSTYLE
350
2A
  0
DICTIONARY
  5
D
102
{ACAD_REACTORS
330
C
102
}
330
C
100
AcDbDictionary
281
     1
  0
DICTIONARY
  5
1A
102
{ACAD_REACTORS
330
C
102
}
330
C
100
AcDbDictionary
281
     1
  3
Layout1
350
1E
  3
Layout2
350
26
  3
Model
350
22
  0
DICTIONARY
  5
3B
102
{ACAD_REACTORS
330
C
102
}
330
C
100
AcDbDictionary
281
     1
  3
ByBlock
350
3D
  3
ByLayer
350
3C
  3
Global
350
3E
  0
DICTIONARY
  5
78
102
{ACAD_REACTORS
330
C
102
}
330
C
100
AcDbDictionary
281
     1
  0
DICTIONARY
  5
17
102
{ACAD_REACTORS
330
C
102
}
330
C
100
AcDbDictionary
281
     1
  3
Standard
350
18
  0
DICTIONARY
  5
19
102
{ACAD_REACTORS
330
C
102
}
330
C
100
AcDbDictionary
281
     1
  0
ACDBDICTIONARYWDFLT
  5
E
102
{ACAD_REACTORS
330
C
102
}
330
C
100
AcDbDictionary
281
     1
  3
Normal
350
F
100
AcDbDictionaryWithDefault
340
F
  0
DICTIONARY
  5
77
102
{ACAD_REACTORS
330
C
102
}
330
C
100
AcDbDictionary
281
     1
  0
DICTIONARY
  5
2A
102
{ACAD_REACTORS
330
C
102
}
330
C
100
AcDbDictionary
281
     1
  3
2dWireframe
350
2F
  3
3D Hidden
350
31
  3
3dWireframe
350
30
  3
Basic
350
32
  3
Brighten
350
36
  3
ColorChange
350
3A
  3
Conceptual
350
34
  3
Dim
350
35
  3
Facepattern
350
39
  3
Flat
350
2B
  3
FlatWithEdges
350
2C
  3
Gouraud
350
2D
  3
GouraudWithEdges
350
2E
  3
Linepattern
350
38
  3
Realistic
350
33
  3
Thicken
350
37
  0
LAYOUT
  5
1E
102
{ACAD_REACTORS
330
1A
102
}
330
1A
100
AcDbPlotSettings
  1

  2
none_device
  4

  6

 40
0.0
 41
0.0
 42
0.0
 43
0.0
 44
0.0
 45
0.0
 46
0.0
 47
0.0
 48
0.0
 49
0.0
140
0.0
141
0.0
142
1.0
143
1.0
 70
   688
 72
     0
 73
     0
 74
     5
  7

 75
    16
 76
     0
 77
     2
 78
   300
147
1.0
148
0.0
149
0.0
100
AcDbLayout
  1
Layout1
 70
     1
 71
     1
 10
0.0
 20
0.0
 11
12.0
 21
9.0
 12
0.0
 22
0.0
 32
0.0
 14
1.000000000000000E+20
 24
1.000000000000000E+20
 34
1.000000000000000E+20
 15
-1.000000000000000E+20
 25
-1.000000000000000E+20
 35
-1.000000000000000E+20
146
0.0
 13
0.0
 23
0.0
 33
0.0
 16
1.0
 26
0.0
 36
0.0
 17
0.0
 27
1.0
 37
0.0
 76
     0
330
1B
  0
LAYOUT
  5
26
102
{ACAD_REACTORS
330
1A
102
}
330
1A
100
AcDbPlotSettings
  1

  2
none_device
  4

  6

 40
0.0
 41
0.0
 42
0.0
 43
0.0
 44
0.0
 45
0.0
 46
0.0
 47
0.0
 48
0.0
 49
0.0
140
0.0
141
0.0
142
1.0
143
1.0
 70
   688
 72
     0
 73
     0
 74
     5
  7

 75
    16
 76
     0
 77
     2
 78
   300
147
1.0
148
0.0
149
0.0
100
AcDbLayout
  1
Layout2
 70
     1
 71
     2
 10
0.0
 20
0.0
 11
0.0
 21
0.0
 12
0.0
 22
0.0
 32
0.0
 14
0.0
 24
0.0
 34
0.0
 15
0.0
 25
0.0
 35
0.0
146
0.0
 13
0.0
 23
0.0
 33
0.0
 16
1.0
 26
0.0
 36
0.0
 17
0.0
 27
1.0
 37
0.0
 76
     0
330
23
  0
LAYOUT
  5
22
102
{ACAD_REACTORS
330
1A
102
}
330
1A
100
AcDbPlotSettings
  1

  2
none_device
  4

  6

 40
0.0
 41
0.0
 42
0.0
 43
0.0
 44
0.0
 45
0.0
 46
0.0
 47
0.0
 48
0.0
 49
0.0
140
0.0
141
0.0
142
1.0
143
1.0
 70
  1712
 72
     0
 73
     0
 74
     0
  7

 75
     0
 76
     0
 77
     2
 78
   300
147
1.0
148
0.0
149
0.0
100
AcDbLayout
  1
Model
 70
     1
 71
     0
 10
0.0
 20
0.0
 11
12.0
 21
9.0
 12
0.0
 22
0.0
 32
0.0
 14
-398.8454
 24
-16.9694
 34
0.0
 15
451.3546
 25
179.6634
 35
0.0
146
0.0
 13
0.0
 23
0.0
 33
0.0
 16
1.0
 26
0.0
 36
0.0
 17
0.0
 27
1.0
 37
0.0
 76
     0
330
1F
331
29
  0
MATERIAL
  5
3D
102
{ACAD_REACTORS
330
3B
102
}
330
3B
100
AcDbMaterial
  1
ByBlock
 72
     1
 94
      127
  0
MATERIAL
  5
3C
102
{ACAD_REACTORS
330
3B
102
}
330
3B
100
AcDbMaterial
  1
ByLayer
 72
     1
 94
      127
  0
MATERIAL
  5
3E
102
{ACAD_REACTORS
330
3B
102
}
330
3B
100
AcDbMaterial
  1
Global
 72
     1
 94
      127
  0
MLINESTYLE
  5
18
102
{ACAD_REACTORS
330
17
102
}
330
17
100
AcDbMlineStyle
  2
Standard
 70
     0
  3

 62
   256
 51
90.0
 52
90.0
 71
     2
 49
0.5
 62
   256
  6
BYLAYER
 49
-0.5
 62
   256
  6
BYLAYER
  0
ACDBPLACEHOLDER
  5
F
102
{ACAD_REACTORS
330
E
102
}
330
E
  0
VISUALSTYLE
  5
2F
102
{ACAD_REACTORS
330
2A
102
}
102
{ACAD_XDICTIONARY
360
5F
102
}
330
2A
100
AcDbVisualStyle
  2
2dWireframe
 70
     4
 71
     0
 72
     2
 73
     0
 90
        0
 40
-0.6
 41
-30.0
 62
     5
 63
     7
421
 16777215
 74
     1
 91
        4
 64
     7
 65
   257
 75
     1
175
     1
 42
1.0
 92
        0
 66
   257
 43
1.0
 76
     1
 77
     6
 78
     2
 67
     7
 79
     5
170
     0
171
     0
290
     0
174
     0
 93
        1
 44
0.0
173
     0
291
     0
 45
0.0
  0
VISUALSTYLE
  5
31
102
{ACAD_REACTORS
330
2A
102
}
102
{ACAD_XDICTIONARY
360
63
102
}
330
2A
100
AcDbVisualStyle
  2
3D Hidden
 70
     6
 71
     1
 72
     2
 73
     2
 90
        0
 40
-0.6
 41
-30.0
 62
     5
 63
     7
421
 16777215
 74
     2
 91
        2
 64
     7
 65
   257
 75
     2
175
     1
 42
40.0
 92
        0
 66
   257
 43
1.0
 76
     1
 77
     6
 78
     2
 67
     7
 79
     3
170
     0
171
     0
290
     0
174
     0
 93
        1
 44
0.0
173
     0
291
     0
 45
0.0
  0
VISUALSTYLE
  5
30
102
{ACAD_REACTORS
330
2A
102
}
102
{ACAD_XDICTIONARY
360
61
102
}
330
2A
100
AcDbVisualStyle
  2
3dWireframe
 70
     5
 71
     0
 72
     2
 73
     0
 90
        0
 40
-0.6
 41
-30.0
 62
     5
 63
     7
421
 16777215
 74
     1
 91
        4
 64
     7
 65
   257
 75
     1
175
     1
 42
1.0
 92
        0
 66
   257
 43
1.0
 76
     1
 77
     6
 78
     2
 67
     7
 79
     5
170
     0
171
     0
290
     0
174
     0
 93
        1
 44
0.0
173
     0
291
     0
 45
0.0
  0
VISUALSTYLE
  5
32
102
{ACAD_REACTORS
330
2A
102
}
102
{ACAD_XDICTIONARY
360
65
102
}
330
2A
100
AcDbVisualStyle
  2
Basic
 70
     7
 71
     1
 72
     0
 73
     1
 90
        0
 40
-0.6
 41
-30.0
 62
     5
 63
     7
421
 16777215
 74
     0
 91
        4
 64
     7
 65
   257
 75
     1
175
     1
 42
1.0
 92
        8
 66
     7
 43
1.0
 76
     1
 77
     6
 78
     2
 67
     7
 79
     5
170
     0
171
     0
290
     0
174
     0
 93
        1
 44
0.0
173
     0
291
     1
 45
0.0
  0
VISUALSTYLE
  5
36
102
{ACAD_REACTORS
330
2A
102
}
102
{ACAD_XDICTIONARY
360
6D
102
}
330
2A
100
AcDbVisualStyle
  2
Brighten
 70
    12
 71
     2
 72
     2
 73
     0
 90
        0
 40
-0.6
 41
-30.0
 62
     5
 63
     7
421
 16777215
 74
     1
 91
        4
 64
     7
 65
   257
 75
     1
175
     1
 42
1.0
 92
        8
 66
     7
 43
1.0
 76
     1
 77
     6
 78
     2
 67
     7
 79
     5
170
     0
171
     0
290
     0
174
     0
 93
        1
 44
50.0
173
     0
291
     1
 45
0.0
  0
VISUALSTYLE
  5
3A
102
{ACAD_REACTORS
330
2A
102
}
102
{ACAD_XDICTIONARY
360
75
102
}
330
2A
100
AcDbVisualStyle
  2
ColorChange
 70
    16
 71
     2
 72
     2
 73
     3
 90
        0
 40
-0.6
 41
-30.0
 62
     5
 63
     8
421
  8421504
 74
     1
 91
        4
 64
     7
 65
   257
 75
     1
175
     1
 42
1.0
 92
        8
 66
     8
424
  8421504
 43
1.0
 76
     1
 77
     6
 78
     2
 67
     7
 79
     5
170
     0
171
     0
290
     0
174
     0
 93
        1
 44
0.0
173
     0
291
     1
 45
0.0
  0
VISUALSTYLE
  5
34
102
{ACAD_REACTORS
330
2A
102
}
102
{ACAD_XDICTIONARY
360
69
102
}
330
2A
100
AcDbVisualStyle
  2
Conceptual
 70
     9
 71
     3
 72
     2
 73
     0
 90
        0
 40
-0.6
 41
-30.0
 62
     5
 63
     7
421
 16777215
 74
     2
 91
        2
 64
     7
 65
   257
 75
     1
175
     1
 42
40.0
 92
        8
 66
     7
 43
1.0
 76
     1
 77
     6
 78
     2
 67
     7
 79
     3
170
     0
171
     0
290
     0
174
     0
 93
        1
 44
0.0
173
     0
291
     0
 45
0.0
  0
VISUALSTYLE
  5
35
102
{ACAD_REACTORS
330
2A
102
}
102
{ACAD_XDICTIONARY
360
6B
102
}
330
2A
100
AcDbVisualStyle
  2
Dim
 70
    11
 71
     2
 72
     2
 73
     0
 90
        0
 40
-0.6
 41
-30.0
 62
     5
 63
     7
421
 16777215
 74
     1
 91
        4
 64
     7
 65
   257
 75
     1
175
     1
 42
1.0
 92
        8
 66
     7
 43
1.0
 76
     1
 77
     6
 78
     2
 67
     7
 79
     5
170
     0
171
     0
290
     0
174
     0
 93
        1
 44
-50.0
173
     0
291
     1
 45
0.0
  0
VISUALSTYLE
  5
39
102
{ACAD_REACTORS
330
2A
102
}
102
{ACAD_XDICTIONARY
360
73
102
}
330
2A
100
AcDbVisualStyle
  2
Facepattern
 70
    15
 71
     2
 72
     2
 73
     0
 90
        0
 40
-0.6
 41
-30.0
 62
     5
 63
     7
421
 16777215
 74
     1
 91
        4
 64
     7
 65
   257
 75
     1
175
     1
 42
1.0
 92
        8
 66
     7
 43
1.0
 76
     1
 77
     6
 78
     2
 67
     7
 79
     5
170
     0
171
     0
290
     0
174
     0
 93
        1
 44
0.0
173
     0
291
     1
 45
0.0
  0
VISUALSTYLE
  5
2B
102
{ACAD_REACTORS
330
2A
102
}
102
{ACAD_XDICTIONARY
360
57
102
}
330
2A
100
AcDbVisualStyle
  2
Flat
 70
     0
 71
     2
 72
     1
 73
     1
 90
        2
 40
-0.6
 41
30.0
 62
     5
 63
     7
421
 16777215
 74
     0
 91
        4
 64
     7
 65
   257
 75
     1
175
     1
 42
1.0
 92
        8
 66
     7
 43
1.0
 76
     1
 77
     6
 78
     2
 67
     7
 79
     5
170
     0
171
     0
290
     0
174
     0
 93
       13
 44
0.0
173
     0
291
     1
 45
0.0
  0
VISUALSTYLE
  5
2C
102
{ACAD_REACTORS
330
2A
102
}
102
{ACAD_XDICTIONARY
360
59
102
}
330
2A
100
AcDbVisualStyle
  2
FlatWithEdges
 70
     1
 71
     2
 72
     1
 73
     1
 90
        2
 40
-0.6
 41
30.0
 62
     5
 63
     7
421
 16777215
 74
     1
 91
        4
 64
     7
 65
   257
 75
     1
175
     1
 42
1.0
 92
        0
 66
   257
 43
1.0
 76
     1
 77
     6
 78
     2
 67
     7
 79
     5
170
     0
171
     0
290
     0
174
     0
 93
       13
 44
0.0
173
     0
291
     1
 45
0.0
  0
VISUALSTYLE
  5
2D
102
{ACAD_REACTORS
330
2A
102
}
102
{ACAD_XDICTIONARY
360
5B
102
}
330
2A
100
AcDbVisualStyle
  2
Gouraud
 70
     2
 71
     2
 72
     2
 73
     1
 90
        2
 40
-0.6
 41
30.0
 62
     5
 63
     7
421
 16777215
 74
     0
 91
        4
 64
     7
 65
   257
 75
     1
175
     1
 42
1.0
 92
        0
 66
     7
 43
1.0
 76
     1
 77
     6
 78
     2
 67
     7
 79
     5
170
     0
171
     0
290
     0
174
     0
 93
       13
 44
0.0
173
     0
291
     1
 45
0.0
  0
VISUALSTYLE
  5
2E
102
{ACAD_REACTORS
330
2A
102
}
102
{ACAD_XDICTIONARY
360
5D
102
}
330
2A
100
AcDbVisualStyle
  2
GouraudWithEdges
 70
     3
 71
     2
 72
     2
 73
     1
 90
        2
 40
-0.6
 41
30.0
 62
     5
 63
     7
421
 16777215
 74
     1
 91
        4
 64
     7
 65
   257
 75
     1
175
     1
 42
1.0
 92
        0
 66
   257
 43
1.0
 76
     1
 77
     6
 78
     2
 67
     7
 79
     5
170
     0
171
     0
290
     0
174
     0
 93
       13
 44
0.0
173
     0
291
     1
 45
0.0
  0
VISUALSTYLE
  5
38
102
{ACAD_REACTORS
330
2A
102
}
102
{ACAD_XDICTIONARY
360
71
102
}
330
2A
100
AcDbVisualStyle
  2
Linepattern
 70
    14
 71
     2
 72
     2
 73
     0
 90
        0
 40
-0.6
 41
-30.0
 62
     5
 63
     7
421
 16777215
 74
     1
 91
        4
 64
     7
 65
   257
 75
     7
175
     7
 42
1.0
 92
        8
 66
     7
 43
1.0
 76
     1
 77
     6
 78
     2
 67
     7
 79
     5
170
     0
171
     0
290
     0
174
     0
 93
        1
 44
0.0
173
     0
291
     1
 45
0.0
  0
VISUALSTYLE
  5
33
102
{ACAD_REACTORS
330
2A
102
}
102
{ACAD_XDICTIONARY
360
67
102
}
330
2A
100
AcDbVisualStyle
  2
Realistic
 70
     8
 71
     2
 72
     2
 73
     0
 90
        0
 40
-0.6
 41
-30.0
 62
     5
 63
     7
421
 16777215
 74
     1
 91
        0
 64
     7
 65
   257
 75
     1
175
     1
 42
1.0
 92
        8
 66
     8
424
  7895160
 43
1.0
 76
     1
 77
     6
 78
     2
 67
     7
 79
     5
170
     0
171
     0
290
     0
174
     0
 93
       13
 44
0.0
173
     0
291
     0
 45
0.0
  0
VISUALSTYLE
  5
37
102
{ACAD_REACTORS
330
2A
102
}
102
{ACAD_XDICTIONARY
360
6F
102
}
330
2A
100
AcDbVisualStyle
  2
Thicken
 70
    13
 71
     2
 72
     2
 73
     0
 90
        0
 40
-0.6
 41
-30.0
 62
     5
 63
     7
421
 16777215
 74
     1
 91
        4
 64
     7
 65
   257
 75
     1
175
     1
 42
1.0
 92
       12
 66
     7
 43
1.0
 76
     1
 77
     6
 78
     2
 67
     7
 79
     5
170
     0
171
     0
290
     0
174
     0
 93
        1
 44
0.0
173
     0
291
     1
 45
0.0
  0
DICTIONARY
  5
5F
330
2F
100
AcDbDictionary
280
     1
281
     1
  3
ACAD_XREC_ROUNDTRIP
360
60
  0
DICTIONARY
  5
63
330
31
100
AcDbDictionary
280
     1
281
     1
  3
ACAD_XREC_ROUNDTRIP
360
64
  0
DICTIONARY
  5
61
330
30
100
AcDbDictionary
280
     1
281
     1
  3
ACAD_XREC_ROUNDTRIP
360
62
  0
DICTIONARY
  5
65
330
32
100
AcDbDictionary
280
     1
281
     1
  3
ACAD_XREC_ROUNDTRIP
360
66
  0
DICTIONARY
  5
6D
330
36
100
AcDbDictionary
280
     1
281
     1
  3
ACAD_XREC_ROUNDTRIP
360
6E
  0
DICTIONARY
  5
75
330
3A
100
AcDbDictionary
280
     1
281
     1
  3
ACAD_XREC_ROUNDTRIP
360
76
  0
DICTIONARY
  5
69
330
34
100
AcDbDictionary
280
     1
281
     1
  3
ACAD_XREC_ROUNDTRIP
360
6A
  0
DICTIONARY
  5
6B
330
35
100
AcDbDictionary
280
     1
281
     1
  3
ACAD_XREC_ROUNDTRIP
360
6C
  0
DICTIONARY
  5
73
330
39
100
AcDbDictionary
280
     1
281
     1
  3
ACAD_XREC_ROUNDTRIP
360
74
  0
DICTIONARY
  5
57
330
2B
100
AcDbDictionary
280
     1
281
     1
  3
ACAD_XREC_ROUNDTRIP
360
58
  0
DICTIONARY
  5
59
330
2C
100
AcDbDictionary
280
     1
281
     1
  3
ACAD_XREC_ROUNDTRIP
360
5A
  0
DICTIONARY
  5
5B
330
2D
100
AcDbDictionary
280
     1
281
     1
  3
ACAD_XREC_ROUNDTRIP
360
5C
  0
DICTIONARY
  5
5D
330
2E
100
AcDbDictionary
280
     1
281
     1
  3
ACAD_XREC_ROUNDTRIP
360
5E
  0
DICTIONARY
  5
71
330
38
100
AcDbDictionary
280
     1
281
     1
  3
ACAD_XREC_ROUNDTRIP
360
72
  0
DICTIONARY
  5
67
330
33
100
AcDbDictionary
280
     1
281
     1
  3
ACAD_XREC_ROUNDTRIP
360
68
  0
DICTIONARY
  5
6F
330
37
100
AcDbDictionary
280
     1
281
     1
  3
ACAD_XREC_ROUNDTRIP
360
70
  0
XRECORD
  5
60
102
{ACAD_REACTORS
330
5F
102
}
330
5F
100
AcDbXrecord
280
     1
102
RTVSPropertyOp0
 70
     1
102
RTVSPropertyOp1
 70
     1
102
RTVSPropertyOp2
 70
     1
102
RTVSPropertyOp3
 70
     1
102
RTVSPropertyOp4
 70
     1
102
RTVSPropertyOp5
 70
     1
102
RTVSPropertyOp6
 70
     1
102
RTVSPropertyOp7
 70
     1
102
RTVSPropertyOp8
 70
     1
102
RTVSPropertyOp9
 70
     1
102
RTVSPropertyOp10
 70
     1
102
RTVSPropertyOp11
 70
     1
102
RTVSPropertyOp12
 70
     1
102
RTVSPropertyOp13
 70
     1
102
RTVSPropertyOp14
 70
     1
102
RTVSPropertyOp15
 70
     1
102
RTVSPropertyOp16
 70
     1
102
RTVSPropertyOp17
 70
     1
102
RTVSPropertyOp18
 70
     1
102
RTVSPropertyOp19
 70
     1
102
RTVSPropertyOp20
 70
     1
102
RTVSPropertyOp21
 70
     1
102
RTVSPropertyOp22
 70
     1
102
RTVSPropertyOp23
 70
     1
102
RTVSPropertyOp24
 70
     1
102
RTVSPropertyOp25
 70
     1
102
RTVSPropertyOp26
 70
     1
102
RTVSPropertyOp27
 70
     1
  0
XRECORD
  5
64
102
{ACAD_REACTORS
330
63
102
}
330
63
100
AcDbXrecord
280
     1
102
RTVSPropertyOp0
 70
     1
102
RTVSPropertyOp1
 70
     1
102
RTVSPropertyOp2
 70
     1
102
RTVSPropertyOp3
 70
     1
102
RTVSPropertyOp4
 70
     1
102
RTVSPropertyOp5
 70
     1
102
RTVSPropertyOp6
 70
     1
102
RTVSPropertyOp7
 70
     1
102
RTVSPropertyOp8
 70
     1
102
RTVSPropertyOp9
 70
     1
102
RTVSPropertyOp10
 70
     1
102
RTVSPropertyOp11
 70
     1
102
RTVSPropertyOp12
 70
     1
102
RTVSPropertyOp13
 70
     1
102
RTVSPropertyOp14
 70
     1
102
RTVSPropertyOp15
 70
     1
102
RTVSPropertyOp16
 70
     1
102
RTVSPropertyOp17
 70
     1
102
RTVSPropertyOp18
 70
     1
102
RTVSPropertyOp19
 70
     1
102
RTVSPropertyOp20
 70
     1
102
RTVSPropertyOp21
 70
     1
102
RTVSPropertyOp22
 70
     1
102
RTVSPropertyOp23
 70
     1
102
RTVSPropertyOp24
 70
     1
102
RTVSPropertyOp25
 70
     1
102
RTVSPropertyOp26
 70
     1
102
RTVSPropertyOp27
 70
     1
  0
XRECORD
  5
62
102
{ACAD_REACTORS
330
61
102
}
330
61
100
AcDbXrecord
280
     1
102
RTVSPropertyOp0
 70
     1
102
RTVSPropertyOp1
 70
     1
102
RTVSPropertyOp2
 70
     1
102
RTVSPropertyOp3
 70
     1
102
RTVSPropertyOp4
 70
     1
102
RTVSPropertyOp5
 70
     1
102
RTVSPropertyOp6
 70
     1
102
RTVSPropertyOp7
 70
     1
102
RTVSPropertyOp8
 70
     1
102
RTVSPropertyOp9
 70
     1
102
RTVSPropertyOp10
 70
     1
102
RTVSPropertyOp11
 70
     1
102
RTVSPropertyOp12
 70
     1
102
RTVSPropertyOp13
 70
     1
102
RTVSPropertyOp14
 70
     1
102
RTVSPropertyOp15
 70
     1
102
RTVSPropertyOp16
 70
     1
102
RTVSPropertyOp17
 70
     1
102
RTVSPropertyOp18
 70
     1
102
RTVSPropertyOp19
 70
     1
102
RTVSPropertyOp20
 70
     1
102
RTVSPropertyOp21
 70
     1
102
RTVSPropertyOp22
 70
     1
102
RTVSPropertyOp23
 70
     1
102
RTVSPropertyOp24
 70
     1
102
RTVSPropertyOp25
 70
     1
102
RTVSPropertyOp26
 70
     1
102
RTVSPropertyOp27
 70
     1
  0
XRECORD
  5
66
102
{ACAD_REACTORS
330
65
102
}
330
65
100
AcDbXrecord
280
     1
102
RTVSPropertyOp0
 70
     1
102
RTVSPropertyOp1
 70
     1
102
RTVSPropertyOp2
 70
     1
102
RTVSPropertyOp3
 70
     1
102
RTVSPropertyOp4
 70
     1
102
RTVSPropertyOp5
 70
     1
102
RTVSPropertyOp6
 70
     1
102
RTVSPropertyOp7
 70
     1
102
RTVSPropertyOp8
 70
     1
102
RTVSPropertyOp9
 70
     1
102
RTVSPropertyOp10
 70
     1
102
RTVSPropertyOp11
 70
     1
102
RTVSPropertyOp12
 70
     1
102
RTVSPropertyOp13
 70
     1
102
RTVSPropertyOp14
 70
     1
102
RTVSPropertyOp15
 70
     1
102
RTVSPropertyOp16
 70
     1
102
RTVSPropertyOp17
 70
     1
102
RTVSPropertyOp18
 70
     1
102
RTVSPropertyOp19
 70
     1
102
RTVSPropertyOp20
 70
     1
102
RTVSPropertyOp21
 70
     1
102
RTVSPropertyOp22
 70
     1
102
RTVSPropertyOp23
 70
     1
102
RTVSPropertyOp24
 70
     1
102
RTVSPropertyOp25
 70
     1
102
RTVSPropertyOp26
 70
     1
102
RTVSPropertyOp27
 70
     1
  0
XRECORD
  5
6E
102
{ACAD_REACTORS
330
6D
102
}
330
6D
100
AcDbXrecord
280
     1
102
RTVSPropertyOp0
 70
     1
102
RTVSPropertyOp1
 70
     1
102
RTVSPropertyOp2
 70
     1
102
RTVSPropertyOp3
 70
     1
102
RTVSPropertyOp4
 70
     1
102
RTVSPropertyOp5
 70
     1
102
RTVSPropertyOp6
 70
     1
102
RTVSPropertyOp7
 70
     1
102
RTVSPropertyOp8
 70
     1
102
RTVSPropertyOp9
 70
     1
102
RTVSPropertyOp10
 70
     1
102
RTVSPropertyOp11
 70
     1
102
RTVSPropertyOp12
 70
     1
102
RTVSPropertyOp13
 70
     1
102
RTVSPropertyOp14
 70
     1
102
RTVSPropertyOp15
 70
     1
102
RTVSPropertyOp16
 70
     1
102
RTVSPropertyOp17
 70
     1
102
RTVSPropertyOp18
 70
     1
102
RTVSPropertyOp19
 70
     1
102
RTVSPropertyOp20
 70
     1
102
RTVSPropertyOp21
 70
     1
102
RTVSPropertyOp22
 70
     1
102
RTVSPropertyOp23
 70
     1
102
RTVSPropertyOp24
 70
     1
102
RTVSPropertyOp25
 70
     1
102
RTVSPropertyOp26
 70
     1
102
RTVSPropertyOp27
 70
     1
  0
XRECORD
  5
76
102
{ACAD_REACTORS
330
75
102
}
330
75
100
AcDbXrecord
280
     1
102
RTVSPropertyOp0
 70
     1
102
RTVSPropertyOp1
 70
     1
102
RTVSPropertyOp2
 70
     1
102
RTVSPropertyOp3
 70
     1
102
RTVSPropertyOp4
 70
     1
102
RTVSPropertyOp5
 70
     1
102
RTVSPropertyOp6
 70
     1
102
RTVSPropertyOp7
 70
     1
102
RTVSPropertyOp8
 70
     1
102
RTVSPropertyOp9
 70
     1
102
RTVSPropertyOp10
 70
     1
102
RTVSPropertyOp11
 70
     1
102
RTVSPropertyOp12
 70
     1
102
RTVSPropertyOp13
 70
     1
102
RTVSPropertyOp14
 70
     1
102
RTVSPropertyOp15
 70
     1
102
RTVSPropertyOp16
 70
     1
102
RTVSPropertyOp17
 70
     1
102
RTVSPropertyOp18
 70
     1
102
RTVSPropertyOp19
 70
     1
102
RTVSPropertyOp20
 70
     1
102
RTVSPropertyOp21
 70
     1
102
RTVSPropertyOp22
 70
     1
102
RTVSPropertyOp23
 70
     1
102
RTVSPropertyOp24
 70
     1
102
RTVSPropertyOp25
 70
     1
102
RTVSPropertyOp26
 70
     1
102
RTVSPropertyOp27
 70
     1
  0
XRECORD
  5
6A
102
{ACAD_REACTORS
330
69
102
}
330
69
100
AcDbXrecord
280
     1
102
RTVSPropertyOp0
 70
     1
102
RTVSPropertyOp1
 70
     1
102
RTVSPropertyOp2
 70
     1
102
RTVSPropertyOp3
 70
     1
102
RTVSPropertyOp4
 70
     1
102
RTVSPropertyOp5
 70
     1
102
RTVSPropertyOp6
 70
     1
102
RTVSPropertyOp7
 70
     1
102
RTVSPropertyOp8
 70
     1
102
RTVSPropertyOp9
 70
     1
102
RTVSPropertyOp10
 70
     1
102
RTVSPropertyOp11
 70
     1
102
RTVSPropertyOp12
 70
     1
102
RTVSPropertyOp13
 70
     1
102
RTVSPropertyOp14
 70
     1
102
RTVSPropertyOp15
 70
     1
102
RTVSPropertyOp16
 70
     1
102
RTVSPropertyOp17
 70
     1
102
RTVSPropertyOp18
 70
     1
102
RTVSPropertyOp19
 70
     1
102
RTVSPropertyOp20
 70
     1
102
RTVSPropertyOp21
 70
     1
102
RTVSPropertyOp22
 70
     1
102
RTVSPropertyOp23
 70
     1
102
RTVSPropertyOp24
 70
     1
102
RTVSPropertyOp25
 70
     1
102
RTVSPropertyOp26
 70
     1
102
RTVSPropertyOp27
 70
     1
  0
XRECORD
  5
6C
102
{ACAD_REACTORS
330
6B
102
}
330
6B
100
AcDbXrecord
280
     1
102
RTVSPropertyOp0
 70
     1
102
RTVSPropertyOp1
 70
     1
102
RTVSPropertyOp2
 70
     1
102
RTVSPropertyOp3
 70
     1
102
RTVSPropertyOp4
 70
     1
102
RTVSPropertyOp5
 70
     1
102
RTVSPropertyOp6
 70
     1
102
RTVSPropertyOp7
 70
     1
102
RTVSPropertyOp8
 70
     1
102
RTVSPropertyOp9
 70
     1
102
RTVSPropertyOp10
 70
     1
102
RTVSPropertyOp11
 70
     1
102
RTVSPropertyOp12
 70
     1
102
RTVSPropertyOp13
 70
     1
102
RTVSPropertyOp14
 70
     1
102
RTVSPropertyOp15
 70
     1
102
RTVSPropertyOp16
 70
     1
102
RTVSPropertyOp17
 70
     1
102
RTVSPropertyOp18
 70
     1
102
RTVSPropertyOp19
 70
     1
102
RTVSPropertyOp20
 70
     1
102
RTVSPropertyOp21
 70
     1
102
RTVSPropertyOp22
 70
     1
102
RTVSPropertyOp23
 70
     1
102
RTVSPropertyOp24
 70
     1
102
RTVSPropertyOp25
 70
     1
102
RTVSPropertyOp26
 70
     1
102
RTVSPropertyOp27
 70
     1
  0
XRECORD
  5
74
102
{ACAD_REACTORS
330
73
102
}
330
73
100
AcDbXrecord
280
     1
102
RTVSPropertyOp0
 70
     1
102
RTVSPropertyOp1
 70
     1
102
RTVSPropertyOp2
 70
     1
102
RTVSPropertyOp3
 70
     1
102
RTVSPropertyOp4
 70
     1
102
RTVSPropertyOp5
 70
     1
102
RTVSPropertyOp6
 70
     1
102
RTVSPropertyOp7
 70
     1
102
RTVSPropertyOp8
 70
     1
102
RTVSPropertyOp9
 70
     1
102
RTVSPropertyOp10
 70
     1
102
RTVSPropertyOp11
 70
     1
102
RTVSPropertyOp12
 70
     1
102
RTVSPropertyOp13
 70
     1
102
RTVSPropertyOp14
 70
     1
102
RTVSPropertyOp15
 70
     1
102
RTVSPropertyOp16
 70
     1
102
RTVSPropertyOp17
 70
     1
102
RTVSPropertyOp18
 70
     1
102
RTVSPropertyOp19
 70
     1
102
RTVSPropertyOp20
 70
     1
102
RTVSPropertyOp21
 70
     1
102
RTVSPropertyOp22
 70
     1
102
RTVSPropertyOp23
 70
     1
102
RTVSPropertyOp24
 70
     1
102
RTVSPropertyOp25
 70
     1
102
RTVSPropertyOp26
 70
     1
102
RTVSPropertyOp27
 70
     1
  0
XRECORD
  5
58
102
{ACAD_REACTORS
330
57
102
}
330
57
100
AcDbXrecord
280
     1
102
RTVSPropertyOp0
 70
     1
102
RTVSPropertyOp1
 70
     1
102
RTVSPropertyOp2
 70
     1
102
RTVSPropertyOp3
 70
     1
102
RTVSPropertyOp4
 70
     1
102
RTVSPropertyOp5
 70
     1
102
RTVSPropertyOp6
 70
     1
102
RTVSPropertyOp7
 70
     1
102
RTVSPropertyOp8
 70
     1
102
RTVSPropertyOp9
 70
     1
102
RTVSPropertyOp10
 70
     1
102
RTVSPropertyOp11
 70
     1
102
RTVSPropertyOp12
 70
     1
102
RTVSPropertyOp13
 70
     1
102
RTVSPropertyOp14
 70
     1
102
RTVSPropertyOp15
 70
     1
102
RTVSPropertyOp16
 70
     1
102
RTVSPropertyOp17
 70
     1
102
RTVSPropertyOp18
 70
     1
102
RTVSPropertyOp19
 70
     1
102
RTVSPropertyOp20
 70
     1
102
RTVSPropertyOp21
 70
     1
102
RTVSPropertyOp22
 70
     1
102
RTVSPropertyOp23
 70
     1
102
RTVSPropertyOp24
 70
     1
102
RTVSPropertyOp25
 70
     1
102
RTVSPropertyOp26
 70
     1
102
RTVSPropertyOp27
 70
     1
  0
XRECORD
  5
5A
102
{ACAD_REACTORS
330
59
102
}
330
59
100
AcDbXrecord
280
     1
102
RTVSPropertyOp0
 70
     1
102
RTVSPropertyOp1
 70
     1
102
RTVSPropertyOp2
 70
     1
102
RTVSPropertyOp3
 70
     1
102
RTVSPropertyOp4
 70
     1
102
RTVSPropertyOp5
 70
     1
102
RTVSPropertyOp6
 70
     1
102
RTVSPropertyOp7
 70
     1
102
RTVSPropertyOp8
 70
     1
102
RTVSPropertyOp9
 70
     1
102
RTVSPropertyOp10
 70
     1
102
RTVSPropertyOp11
 70
     1
102
RTVSPropertyOp12
 70
     1
102
RTVSPropertyOp13
 70
     1
102
RTVSPropertyOp14
 70
     1
102
RTVSPropertyOp15
 70
     1
102
RTVSPropertyOp16
 70
     1
102
RTVSPropertyOp17
 70
     1
102
RTVSPropertyOp18
 70
     1
102
RTVSPropertyOp19
 70
     1
102
RTVSPropertyOp20
 70
     1
102
RTVSPropertyOp21
 70
     1
102
RTVSPropertyOp22
 70
     1
102
RTVSPropertyOp23
 70
     1
102
RTVSPropertyOp24
 70
     1
102
RTVSPropertyOp25
 70
     1
102
RTVSPropertyOp26
 70
     1
102
RTVSPropertyOp27
 70
     1
  0
XRECORD
  5
5C
102
{ACAD_REACTORS
330
5B
102
}
330
5B
100
AcDbXrecord
280
     1
102
RTVSPropertyOp0
 70
     1
102
RTVSPropertyOp1
 70
     1
102
RTVSPropertyOp2
 70
     1
102
RTVSPropertyOp3
 70
     1
102
RTVSPropertyOp4
 70
     1
102
RTVSPropertyOp5
 70
     1
102
RTVSPropertyOp6
 70
     1
102
RTVSPropertyOp7
 70
     1
102
RTVSPropertyOp8
 70
     1
102
RTVSPropertyOp9
 70
     1
102
RTVSPropertyOp10
 70
     1
102
RTVSPropertyOp11
 70
     1
102
RTVSPropertyOp12
 70
     1
102
RTVSPropertyOp13
 70
     1
102
RTVSPropertyOp14
 70
     1
102
RTVSPropertyOp15
 70
     1
102
RTVSPropertyOp16
 70
     1
102
RTVSPropertyOp17
 70
     1
102
RTVSPropertyOp18
 70
     1
102
RTVSPropertyOp19
 70
     1
102
RTVSPropertyOp20
 70
     1
102
RTVSPropertyOp21
 70
     1
102
RTVSPropertyOp22
 70
     1
102
RTVSPropertyOp23
 70
     1
102
RTVSPropertyOp24
 70
     1
102
RTVSPropertyOp25
 70
     1
102
RTVSPropertyOp26
 70
     1
102
RTVSPropertyOp27
 70
     1
  0
XRECORD
  5
5E
102
{ACAD_REACTORS
330
5D
102
}
330
5D
100
AcDbXrecord
280
     1
102
RTVSPropertyOp0
 70
     1
102
RTVSPropertyOp1
 70
     1
102
RTVSPropertyOp2
 70
     1
102
RTVSPropertyOp3
 70
     1
102
RTVSPropertyOp4
 70
     1
102
RTVSPropertyOp5
 70
     1
102
RTVSPropertyOp6
 70
     1
102
RTVSPropertyOp7
 70
     1
102
RTVSPropertyOp8
 70
     1
102
RTVSPropertyOp9
 70
     1
102
RTVSPropertyOp10
 70
     1
102
RTVSPropertyOp11
 70
     1
102
RTVSPropertyOp12
 70
     1
102
RTVSPropertyOp13
 70
     1
102
RTVSPropertyOp14
 70
     1
102
RTVSPropertyOp15
 70
     1
102
RTVSPropertyOp16
 70
     1
102
RTVSPropertyOp17
 70
     1
102
RTVSPropertyOp18
 70
     1
102
RTVSPropertyOp19
 70
     1
102
RTVSPropertyOp20
 70
     1
102
RTVSPropertyOp21
 70
     1
102
RTVSPropertyOp22
 70
     1
102
RTVSPropertyOp23
 70
     1
102
RTVSPropertyOp24
 70
     1
102
RTVSPropertyOp25
 70
     1
102
RTVSPropertyOp26
 70
     1
102
RTVSPropertyOp27
 70
     1
  0
XRECORD
  5
72
102
{ACAD_REACTORS
330
71
102
}
330
71
100
AcDbXrecord
280
     1
102
RTVSPropertyOp0
 70
     1
102
RTVSPropertyOp1
 70
     1
102
RTVSPropertyOp2
 70
     1
102
RTVSPropertyOp3
 70
     1
102
RTVSPropertyOp4
 70
     1
102
RTVSPropertyOp5
 70
     1
102
RTVSPropertyOp6
 70
     1
102
RTVSPropertyOp7
 70
     1
102
RTVSPropertyOp8
 70
     1
102
RTVSPropertyOp9
 70
     1
102
RTVSPropertyOp10
 70
     1
102
RTVSPropertyOp11
 70
     1
102
RTVSPropertyOp12
 70
     1
102
RTVSPropertyOp13
 70
     1
102
RTVSPropertyOp14
 70
     1
102
RTVSPropertyOp15
 70
     1
102
RTVSPropertyOp16
 70
     1
102
RTVSPropertyOp17
 70
     1
102
RTVSPropertyOp18
 70
     1
102
RTVSPropertyOp19
 70
     1
102
RTVSPropertyOp20
 70
     1
102
RTVSPropertyOp21
 70
     1
102
RTVSPropertyOp22
 70
     1
102
RTVSPropertyOp23
 70
     1
102
RTVSPropertyOp24
 70
     1
102
RTVSPropertyOp25
 70
     1
102
RTVSPropertyOp26
 70
     1
102
RTVSPropertyOp27
 70
     1
  0
XRECORD
  5
68
102
{ACAD_REACTORS
330
67
102
}
330
67
100
AcDbXrecord
280
     1
102
RTVSPropertyOp0
 70
     1
102
RTVSPropertyOp1
 70
     1
102
RTVSPropertyOp2
 70
     1
102
RTVSPropertyOp3
 70
     1
102
RTVSPropertyOp4
 70
     1
102
RTVSPropertyOp5
 70
     1
102
RTVSPropertyOp6
 70
     1
102
RTVSPropertyOp7
 70
     1
102
RTVSPropertyOp8
 70
     1
102
RTVSPropertyOp9
 70
     1
102
RTVSPropertyOp10
 70
     1
102
RTVSPropertyOp11
 70
     1
102
RTVSPropertyOp12
 70
     1
102
RTVSPropertyOp13
 70
     1
102
RTVSPropertyOp14
 70
     1
102
RTVSPropertyOp15
 70
     1
102
RTVSPropertyOp16
 70
     1
102
RTVSPropertyOp17
 70
     1
102
RTVSPropertyOp18
 70
     1
102
RTVSPropertyOp19
 70
     1
102
RTVSPropertyOp20
 70
     1
102
RTVSPropertyOp21
 70
     1
102
RTVSPropertyOp22
 70
     1
102
RTVSPropertyOp23
 70
     1
102
RTVSPropertyOp24
 70
     1
102
RTVSPropertyOp25
 70
     1
102
RTVSPropertyOp26
 70
     1
102
RTVSPropertyOp27
 70
     1
  0
XRECORD
  5
70
102
{ACAD_REACTORS
330
6F
102
}
330
6F
100
AcDbXrecord
280
     1
102
RTVSPropertyOp0
 70
     1
102
RTVSPropertyOp1
 70
     1
102
RTVSPropertyOp2
 70
     1
102
RTVSPropertyOp3
 70
     1
102
RTVSPropertyOp4
 70
     1
102
RTVSPropertyOp5
 70
     1
102
RTVSPropertyOp6
 70
     1
102
RTVSPropertyOp7
 70
     1
102
RTVSPropertyOp8
 70
     1
102
RTVSPropertyOp9
 70
     1
102
RTVSPropertyOp10
 70
     1
102
RTVSPropertyOp11
 70
     1
102
RTVSPropertyOp12
 70
     1
102
RTVSPropertyOp13
 70
     1
102
RTVSPropertyOp14
 70
     1
102
RTVSPropertyOp15
 70
     1
102
RTVSPropertyOp16
 70
     1
102
RTVSPropertyOp17
 70
     1
102
RTVSPropertyOp18
 70
     1
102
RTVSPropertyOp19
 70
     1
102
RTVSPropertyOp20
 70
     1
102
RTVSPropertyOp21
 70
     1
102
RTVSPropertyOp22
 70
     1
102
RTVSPropertyOp23
 70
     1
102
RTVSPropertyOp24
 70
     1
102
RTVSPropertyOp25
 70
     1
102
RTVSPropertyOp26
 70
     1
102
RTVSPropertyOp27
 70
     1
  0
ENDSEC
  0
EOF
